<svg width="278" height="299" viewBox="0 0 278 299" fill="none" xmlns="http://www.w3.org/2000/svg">
<g clip-path="url(#clip0_100_10938)">
<path d="M176.344 169.643L56.1744 200.575C52.0981 201.619 47.7738 201.004 44.1503 198.866C40.5267 196.727 37.8998 193.239 36.8458 189.167L0.503453 48.0975C-0.541329 44.023 0.0734666 39.7005 2.21297 36.0785C4.35247 32.4565 7.84195 29.8306 11.9159 28.7771L123.714 0L152.329 12.8046L187.756 150.322C188.801 154.397 188.186 158.719 186.047 162.341C183.907 165.963 180.418 168.589 176.344 169.643Z" fill="#F2F2F2"/>
<path d="M13.0556 33.2C10.1545 33.9502 7.66953 35.8201 6.14595 38.3995C4.62236 40.9788 4.18455 44.0569 4.92857 46.9585L41.2709 188.028C42.0215 190.928 43.8922 193.412 46.4726 194.935C49.053 196.458 52.1324 196.895 55.0352 196.152L175.205 165.22C178.106 164.469 180.591 162.6 182.114 160.02C183.638 157.441 184.076 154.363 183.332 151.461L148.453 16.0743L123.306 4.82129L13.0556 33.2Z" fill="white"/>
<path d="M152.022 13.5323L133.425 18.3194C132.067 18.6689 130.626 18.465 129.419 17.7524C128.211 17.0399 127.337 15.8772 126.987 14.5201L123.45 0.789797C123.434 0.729685 123.436 0.666428 123.455 0.60728C123.474 0.548131 123.509 0.495488 123.556 0.455383C123.604 0.415278 123.662 0.389337 123.723 0.380535C123.784 0.371733 123.847 0.380425 123.904 0.405616L152.074 12.9107C152.137 12.9385 152.189 12.9851 152.224 13.0441C152.259 13.1031 152.275 13.1715 152.269 13.2398C152.264 13.3082 152.237 13.373 152.192 13.4254C152.148 13.4778 152.089 13.5152 152.022 13.5323Z" fill="#F2F2F2"/>
<path d="M142.238 134.003L87.5268 148.086C87.1907 148.172 86.8408 148.192 86.4972 148.143C86.1535 148.094 85.8228 147.979 85.5239 147.802C85.225 147.626 84.9638 147.392 84.7552 147.115C84.5466 146.838 84.3947 146.522 84.3081 146.186C84.2216 145.85 84.2021 145.5 84.2507 145.157C84.2994 144.813 84.4153 144.483 84.5917 144.184C84.7682 143.885 85.0018 143.624 85.2792 143.415C85.5567 143.207 85.8725 143.055 86.2086 142.969L140.92 128.886C141.256 128.799 141.606 128.78 141.95 128.828C142.293 128.877 142.624 128.993 142.923 129.169C143.222 129.346 143.483 129.579 143.692 129.856C143.9 130.134 144.052 130.449 144.139 130.785C144.225 131.121 144.245 131.471 144.196 131.815C144.147 132.158 144.032 132.489 143.855 132.787C143.679 133.086 143.445 133.347 143.168 133.556C142.89 133.764 142.574 133.916 142.238 134.003Z" fill="#CCCCCC"/>
<path d="M155.021 139.92L89.7514 156.721C89.0726 156.895 88.3521 156.793 87.7485 156.437C87.1449 156.081 86.7075 155.499 86.5327 154.821C86.3579 154.142 86.4599 153.422 86.8164 152.819C87.1728 152.215 87.7544 151.778 88.4332 151.603L153.703 134.803C154.382 134.629 155.102 134.731 155.705 135.088C156.308 135.444 156.745 136.025 156.919 136.703C157.094 137.381 156.992 138.101 156.636 138.704C156.28 139.307 155.699 139.745 155.021 139.92Z" fill="#CCCCCC"/>
<path d="M65.1974 165.047C70.3568 165.047 74.5393 160.866 74.5393 155.709C74.5393 150.552 70.3568 146.371 65.1974 146.371C60.038 146.371 55.8555 150.552 55.8555 155.709C55.8555 160.866 60.038 165.047 65.1974 165.047Z" fill="#E6E6E6"/>
<path d="M136.423 109.565L63.7604 128.261C61.6604 128.799 59.4328 128.482 57.5662 127.38C55.6996 126.278 54.3465 124.481 53.8038 122.384L38.5765 63.2541C38.0384 61.155 38.3553 58.9283 39.4577 57.0625C40.56 55.1967 42.3577 53.8442 44.4565 53.3017L117.119 34.6052C119.219 34.0674 121.446 34.3841 123.313 35.486C125.179 36.5879 126.533 38.3849 127.075 40.4827L142.303 99.6122C142.841 101.711 142.524 103.938 141.421 105.804C140.319 107.67 138.521 109.022 136.423 109.565Z" fill="white"/>
<path d="M136.423 109.565L63.7604 128.261C61.6604 128.799 59.4328 128.482 57.5662 127.38C55.6996 126.278 54.3465 124.481 53.8038 122.384L38.5765 63.2541C38.0384 61.155 38.3553 58.9283 39.4577 57.0625C40.56 55.1967 42.3577 53.8442 44.4565 53.3017L117.119 34.6052C119.219 34.0674 121.446 34.3841 123.313 35.486C125.179 36.5879 126.533 38.3849 127.075 40.4827L142.303 99.6122C142.841 101.711 142.524 103.938 141.421 105.804C140.319 107.67 138.521 109.022 136.423 109.565ZM44.6963 54.2328C42.8445 54.7116 41.2583 55.905 40.2856 57.5513C39.313 59.1976 39.0333 61.1623 39.5081 63.0144L54.7353 122.144C55.2143 123.995 56.4082 125.581 58.0552 126.553C59.7022 127.525 61.6677 127.805 63.5206 127.33L136.183 108.633C138.035 108.155 139.621 106.961 140.594 105.315C141.566 103.669 141.846 101.704 141.371 99.8519L126.144 40.7224C125.665 38.8714 124.471 37.2858 122.824 36.3136C121.177 35.3413 119.211 35.0618 117.358 35.5363L44.6963 54.2328Z" fill="#E6E6E6"/>
<path d="M113.431 54.4869L76.7593 63.9227C76.4387 64.0122 76.0961 63.9767 75.8007 63.8233C75.5053 63.6699 75.2792 63.4102 75.168 63.0965C75.1163 62.9327 75.0985 62.76 75.1158 62.5891C75.133 62.4182 75.1849 62.2525 75.2683 62.1023C75.3517 61.9521 75.4648 61.8204 75.6008 61.7153C75.7368 61.6103 75.8927 61.534 76.0592 61.4911L113.389 51.886C114.897 52.6497 114.5 54.2117 113.431 54.4869Z" fill="#F2F2F2"/>
<path d="M115.087 60.9166L78.4155 70.3524C78.0949 70.4419 77.7523 70.4063 77.4569 70.253C77.1615 70.0996 76.9354 69.8398 76.8243 69.5262C76.7725 69.3624 76.7548 69.1897 76.772 69.0188C76.7892 68.8478 76.8411 68.6822 76.9245 68.532C77.0079 68.3818 77.121 68.2501 77.257 68.145C77.393 68.0399 77.549 67.9637 77.7154 67.9208L115.045 58.3157C116.553 59.0794 116.156 60.6414 115.087 60.9166Z" fill="#F2F2F2"/>
<path d="M71.4318 76.0531L60.2399 78.9328C59.8744 79.0265 59.4867 78.9714 59.1618 78.7796C58.8368 78.5878 58.6013 78.2749 58.5069 77.9098L55.1071 64.7081C55.0134 64.3427 55.0686 63.9551 55.2604 63.6303C55.4523 63.3056 55.7653 63.0702 56.1306 62.9758L67.3224 60.096C67.6879 60.0025 68.0756 60.0577 68.4005 60.2495C68.7254 60.4412 68.9609 60.754 69.0555 61.1191L72.4552 74.3208C72.5489 74.6861 72.4938 75.0737 72.3019 75.3985C72.11 75.7233 71.7971 75.9587 71.4318 76.0531Z" fill="#E6E6E6"/>
<path d="M118.371 74.1088L62.4038 88.5097C62.0832 88.5992 61.7406 88.5636 61.4452 88.4102C61.1498 88.2569 60.9237 87.9971 60.8126 87.6835C60.7608 87.5197 60.743 87.347 60.7603 87.1761C60.7775 87.0051 60.8294 86.8395 60.9128 86.6893C60.9962 86.539 61.1093 86.4074 61.2453 86.3023C61.3813 86.1972 61.5373 86.1209 61.7037 86.0781L118.33 71.5078C119.838 72.2716 119.441 73.8337 118.371 74.1088Z" fill="#F2F2F2"/>
<path d="M120.028 80.5404L64.0601 94.9413C63.7395 95.0308 63.3969 94.9952 63.1015 94.8419C62.8061 94.6885 62.5799 94.4288 62.4688 94.1151C62.4171 93.9513 62.3993 93.7786 62.4165 93.6077C62.4338 93.4367 62.4857 93.2711 62.5691 93.1209C62.6524 92.9707 62.7656 92.839 62.9016 92.7339C63.0375 92.6288 63.1935 92.5526 63.36 92.5097L119.986 77.9395C121.494 78.7032 121.097 80.2653 120.028 80.5404Z" fill="#F2F2F2"/>
<path d="M121.682 86.9679L65.7144 101.369C65.3938 101.458 65.0511 101.423 64.7557 101.269C64.4604 101.116 64.2342 100.856 64.1231 100.543C64.0714 100.379 64.0536 100.206 64.0708 100.035C64.0881 99.8642 64.14 99.6986 64.2233 99.5484C64.3067 99.3981 64.4199 99.2665 64.5559 99.1614C64.6918 99.0563 64.8478 98.98 65.0143 98.9372L121.64 84.3669C123.148 85.1307 122.751 86.6928 121.682 86.9679Z" fill="#F2F2F2"/>
<path d="M123.338 93.3991L67.3706 107.8C67.05 107.889 66.7074 107.854 66.412 107.701C66.1166 107.547 65.8905 107.287 65.7794 106.974C65.7276 106.81 65.7098 106.637 65.7271 106.466C65.7443 106.295 65.7962 106.13 65.8796 105.98C65.963 105.829 66.0761 105.698 66.2121 105.593C66.3481 105.487 66.5041 105.411 66.6705 105.368L123.296 90.7981C124.804 91.5618 124.408 93.1239 123.338 93.3991Z" fill="#F2F2F2"/>
<path d="M124.995 99.8271L69.0269 114.228C68.7063 114.317 68.3636 114.282 68.0683 114.128C67.7729 113.975 67.5467 113.715 67.4356 113.402C67.3839 113.238 67.3661 113.065 67.3833 112.894C67.4006 112.723 67.4525 112.558 67.5359 112.408C67.6192 112.257 67.7324 112.126 67.8684 112.021C68.0043 111.915 68.1603 111.839 68.3268 111.796L124.953 97.2261C126.461 97.9898 126.064 99.5519 124.995 99.8271Z" fill="#F2F2F2"/>
<path d="M65.8862 158.982C65.6827 159.035 65.4677 159.02 65.2734 158.94L65.2614 158.935L62.7164 157.857C62.5983 157.807 62.4912 157.734 62.4013 157.643C62.3113 157.551 62.2403 157.443 62.1922 157.324C62.1441 157.205 62.12 157.078 62.1211 156.95C62.1223 156.822 62.1487 156.695 62.1989 156.577C62.2491 156.459 62.322 156.352 62.4136 156.262C62.5052 156.173 62.6135 156.102 62.7325 156.054C62.8515 156.006 62.9788 155.982 63.107 155.983C63.2353 155.985 63.362 156.011 63.4799 156.062L65.129 156.763L67.29 151.682C67.3401 151.564 67.4129 151.457 67.5043 151.367C67.5957 151.278 67.7039 151.207 67.8227 151.159C67.9414 151.111 68.0685 151.087 68.1966 151.088C68.3246 151.089 68.4512 151.116 68.5691 151.166L68.5564 151.199L68.5699 151.166C68.8078 151.267 68.9957 151.459 69.0924 151.699C69.1891 151.938 69.1867 152.207 69.0857 152.445L66.5433 158.419C66.4844 158.557 66.3945 158.679 66.2806 158.777C66.1668 158.874 66.032 158.944 65.8867 158.981L65.8862 158.982Z" fill="white"/>
<path d="M222.436 223.401H98.3465C94.1385 223.396 90.1042 221.723 87.1286 218.748C84.1531 215.774 82.4794 211.742 82.4746 207.535V61.8635C82.4794 57.6573 84.1531 53.6246 87.1286 50.6504C90.1042 47.6761 94.1385 46.003 98.3465 45.9983H213.792L238.308 65.5312V207.535C238.303 211.742 236.63 215.774 233.654 218.748C230.679 221.723 226.644 223.396 222.436 223.401Z" fill="#E6E6E6"/>
<path d="M98.3457 50.5657C95.3491 50.5691 92.4761 51.7605 90.3572 53.8785C88.2383 55.9966 87.0463 58.8683 87.043 61.8636V207.535C87.0463 210.531 88.2383 213.402 90.3572 215.521C92.4761 217.639 95.3491 218.83 98.3457 218.833H222.435C225.432 218.83 228.305 217.639 230.424 215.521C232.543 213.402 233.735 210.531 233.738 207.535V67.7317L212.193 50.5657H98.3457Z" fill="white"/>
<path d="M198.3 92.9231H141.803C141.102 92.9231 140.43 92.6448 139.934 92.1493C139.439 91.6538 139.16 90.9818 139.16 90.2811C139.16 89.5804 139.439 88.9084 139.934 88.413C140.43 87.9175 141.102 87.6392 141.803 87.6392H198.3C199.001 87.6392 199.673 87.9175 200.169 88.413C200.664 88.9084 200.943 89.5804 200.943 90.2811C200.943 90.9818 200.664 91.6538 200.169 92.1493C199.673 92.6448 199.001 92.9231 198.3 92.9231Z" fill="#3F3F8F"/>
<path d="M209.203 101.84H141.804C141.103 101.839 140.432 101.56 139.937 101.065C139.442 100.569 139.164 99.898 139.164 99.1979C139.164 98.4978 139.442 97.8263 139.937 97.331C140.432 96.8356 141.103 96.5569 141.804 96.5559H209.203C209.55 96.5554 209.894 96.6234 210.215 96.756C210.536 96.8886 210.828 97.0831 211.074 97.3285C211.32 97.5738 211.515 97.8652 211.648 98.186C211.781 98.5068 211.849 98.8506 211.849 99.1979C211.849 99.5451 211.781 99.889 211.648 100.21C211.515 100.531 211.32 100.822 211.074 101.067C210.828 101.313 210.536 101.507 210.215 101.64C209.894 101.772 209.55 101.84 209.203 101.84Z" fill="#3F3F8F"/>
<path d="M198.301 127.598H141.807C141.106 127.598 140.434 127.876 139.938 128.371C139.443 128.867 139.164 129.539 139.164 130.239C139.164 130.94 139.443 131.612 139.938 132.107C140.434 132.603 141.106 132.881 141.807 132.881H198.301C199.002 132.881 199.675 132.603 200.17 132.107C200.666 131.612 200.944 130.94 200.944 130.239C200.944 129.539 200.666 128.867 200.17 128.371C199.675 127.876 199.002 127.598 198.301 127.598Z" fill="#CCCCCC"/>
<path d="M209.205 136.516H141.807C141.106 136.516 140.434 136.794 139.938 137.29C139.443 137.785 139.164 138.457 139.164 139.158C139.164 139.858 139.443 140.53 139.938 141.026C140.434 141.521 141.106 141.799 141.807 141.799H209.205C209.906 141.799 210.578 141.521 211.074 141.026C211.569 140.53 211.848 139.858 211.848 139.158C211.848 138.457 211.569 137.785 211.074 137.29C210.578 136.794 209.906 136.516 209.205 136.516Z" fill="#CCCCCC"/>
<path d="M198.3 172.843H141.803C141.102 172.843 140.43 172.565 139.934 172.069C139.439 171.574 139.16 170.902 139.16 170.201C139.16 169.501 139.439 168.829 139.934 168.333C140.43 167.838 141.102 167.559 141.803 167.559H198.3C199.001 167.559 199.673 167.838 200.169 168.333C200.664 168.829 200.943 169.501 200.943 170.201C200.943 170.902 200.664 171.574 200.169 172.069C199.673 172.565 199.001 172.843 198.3 172.843Z" fill="#CCCCCC"/>
<path d="M209.203 181.76H141.804C141.103 181.759 140.432 181.48 139.937 180.985C139.442 180.489 139.164 179.818 139.164 179.118C139.164 178.418 139.442 177.746 139.937 177.251C140.432 176.756 141.103 176.477 141.804 176.476H209.203C209.55 176.475 209.894 176.543 210.215 176.676C210.536 176.808 210.828 177.003 211.074 177.248C211.32 177.494 211.515 177.785 211.648 178.106C211.781 178.427 211.849 178.771 211.849 179.118C211.849 179.465 211.781 179.809 211.648 180.13C211.515 180.45 211.32 180.742 211.074 180.987C210.828 181.233 210.536 181.427 210.215 181.56C209.894 181.692 209.55 181.76 209.203 181.76Z" fill="#CCCCCC"/>
<path d="M118.277 104.078C123.437 104.078 127.619 99.8968 127.619 94.7396C127.619 89.5824 123.437 85.4016 118.277 85.4016C113.118 85.4016 108.936 89.5824 108.936 94.7396C108.936 99.8968 113.118 104.078 118.277 104.078Z" fill="#3F3F8F"/>
<path d="M117.352 98.3017C117.142 98.302 116.937 98.2341 116.769 98.108L116.759 98.1002L114.563 96.4215C114.461 96.3437 114.376 96.2465 114.311 96.1356C114.247 96.0246 114.205 95.9021 114.188 95.775C114.171 95.6478 114.18 95.5186 114.213 95.3947C114.246 95.2708 114.303 95.1546 114.381 95.0529C114.459 94.9511 114.556 94.8657 114.668 94.8016C114.779 94.7375 114.901 94.6959 115.029 94.6792C115.156 94.6626 115.285 94.6712 115.409 94.7045C115.533 94.7378 115.649 94.7953 115.751 94.8735L117.173 95.9636L120.533 91.5814C120.611 91.4798 120.708 91.3946 120.819 91.3305C120.93 91.2665 121.052 91.2249 121.179 91.2081C121.306 91.1913 121.435 91.1997 121.559 91.2328C121.683 91.2659 121.799 91.323 121.9 91.4009L121.88 91.4301L121.901 91.4011C122.106 91.5586 122.24 91.791 122.274 92.0473C122.308 92.3036 122.239 92.5629 122.082 92.7681L118.129 97.9202C118.038 98.0389 117.92 98.135 117.786 98.2009C117.651 98.2669 117.503 98.301 117.353 98.3005L117.352 98.3017Z" fill="white"/>
<path d="M128.579 134.699C128.58 135.925 128.338 137.139 127.869 138.273C127.4 139.406 126.712 140.436 125.845 141.303C124.977 142.171 123.948 142.859 122.814 143.328C121.681 143.798 120.466 144.04 119.239 144.04C119.159 144.041 119.078 144.038 118.998 144.03C117.162 143.983 115.379 143.396 113.875 142.341C112.37 141.287 111.21 139.812 110.54 138.102C109.87 136.392 109.719 134.522 110.107 132.727C110.494 130.931 111.403 129.29 112.719 128.008C114.035 126.726 115.7 125.861 117.505 125.52C119.311 125.18 121.177 125.379 122.87 126.093C124.563 126.807 126.007 128.004 127.023 129.535C128.038 131.066 128.58 132.862 128.579 134.699Z" fill="#CCCCCC"/>
<path d="M118.277 183.997C123.437 183.997 127.619 179.817 127.619 174.66C127.619 169.502 123.437 165.322 118.277 165.322C113.118 165.322 108.936 169.502 108.936 174.66C108.936 179.817 113.118 183.997 118.277 183.997Z" fill="#CCCCCC"/>
<path d="M237.831 66.1599H218.626C217.224 66.1599 215.879 65.6032 214.888 64.6123C213.897 63.6213 213.34 62.2773 213.34 60.8759V46.6977C213.34 46.6356 213.357 46.5748 213.39 46.5222C213.423 46.4696 213.47 46.4274 213.526 46.4004C213.582 46.3733 213.645 46.3626 213.706 46.3694C213.768 46.3762 213.827 46.4003 213.875 46.4388L238.036 65.5708C238.09 65.6134 238.129 65.6716 238.148 65.7374C238.167 65.8033 238.165 65.8735 238.143 65.9382C238.12 66.003 238.078 66.0591 238.022 66.0988C237.966 66.1386 237.899 66.1599 237.831 66.1599Z" fill="#CCCCCC"/>
<path d="M128.58 134.699C128.581 135.925 128.339 137.14 127.87 138.273C127.401 139.406 126.713 140.436 125.846 141.303C124.979 142.171 123.949 142.859 122.815 143.328C121.682 143.798 120.467 144.04 119.24 144.04C119.16 144.041 119.079 144.038 118.999 144.03C117.793 141.021 117.327 137.766 117.643 134.54C117.958 131.314 119.046 128.21 120.813 125.492C122.986 125.864 124.957 126.993 126.379 128.677C127.8 130.362 128.58 132.495 128.58 134.699Z" fill="#3F3F8F"/>
<path d="M139.16 130.242C139.161 129.541 139.441 128.869 139.936 128.374C140.432 127.878 141.104 127.599 141.805 127.598H155.883C156.706 129.269 157.29 131.048 157.62 132.881H141.805C141.105 132.881 140.433 132.603 139.937 132.108C139.441 131.613 139.162 130.942 139.16 130.242Z" fill="#3F3F8F"/>
<path d="M157.948 136.516C157.949 138.3 157.713 140.077 157.246 141.799H141.807C141.106 141.799 140.434 141.521 139.938 141.026C139.443 140.53 139.164 139.858 139.164 139.158C139.164 138.457 139.443 137.785 139.938 137.29C140.434 136.794 141.106 136.516 141.807 136.516H157.948Z" fill="#3F3F8F"/>
<path d="M192.779 169.101C192.381 169.754 191.739 170.222 190.995 170.402C190.251 170.582 189.466 170.46 188.813 170.061L155.143 149.533C154.819 149.335 154.538 149.076 154.314 148.77C154.091 148.464 153.93 148.117 153.841 147.749C153.752 147.381 153.736 146.999 153.794 146.625C153.853 146.25 153.985 145.891 154.182 145.568C154.379 145.244 154.638 144.963 154.945 144.74C155.251 144.516 155.598 144.356 155.966 144.266C156.334 144.177 156.717 144.161 157.091 144.22C157.466 144.278 157.825 144.41 158.148 144.607L191.818 165.136C192.472 165.534 192.94 166.176 193.12 166.92C193.301 167.663 193.178 168.448 192.779 169.101Z" fill="#3F3D56"/>
<path d="M159.11 148.572C156.733 152.469 153.252 155.573 149.11 157.492C144.967 159.412 140.348 160.06 135.837 159.355C131.325 158.651 127.124 156.625 123.765 153.533C120.406 150.442 118.039 146.425 116.964 141.989C115.888 137.553 116.153 132.898 117.725 128.613C119.296 124.327 122.104 120.604 125.792 117.914C129.481 115.223 133.885 113.687 138.447 113.498C143.009 113.31 147.525 114.478 151.423 116.854C156.645 120.046 160.387 125.178 161.828 131.124C163.269 137.07 162.292 143.345 159.11 148.572ZM124.619 127.543C122.836 130.465 121.959 133.85 122.101 137.27C122.242 140.691 123.395 143.992 125.414 146.757C127.433 149.522 130.226 151.627 133.442 152.805C136.657 153.984 140.149 154.182 143.478 153.376C146.806 152.57 149.82 150.796 152.14 148.277C154.459 145.759 155.979 142.609 156.508 139.227C157.037 135.845 156.55 132.383 155.11 129.277C153.67 126.171 151.341 123.562 148.417 121.779C144.496 119.394 139.787 118.662 135.326 119.742C130.864 120.823 127.014 123.628 124.619 127.543Z" fill="#3F3D56"/>
<path d="M233.079 140.255C239.603 140.255 244.892 134.969 244.892 128.447C244.892 121.926 239.603 116.639 233.079 116.639C226.555 116.639 221.266 121.926 221.266 128.447C221.266 134.969 226.555 140.255 233.079 140.255Z" fill="#A0616A"/>
<path d="M232.316 194.644C232.088 193.935 232.013 193.185 232.095 192.444C232.177 191.704 232.415 190.989 232.793 190.347C233.171 189.704 233.68 189.149 234.288 188.717C234.895 188.285 235.587 187.987 236.318 187.841C236.55 187.796 236.785 187.767 237.02 187.754L249.464 167.791L238.097 156.99C237.663 156.577 237.315 156.083 237.073 155.535C236.831 154.987 236.7 154.397 236.687 153.798C236.675 153.199 236.781 152.603 237 152.046C237.219 151.488 237.547 150.98 237.964 150.549C238.38 150.119 238.878 149.776 239.429 149.539C239.979 149.302 240.571 149.176 241.17 149.169C241.769 149.162 242.364 149.274 242.92 149.498C243.475 149.722 243.981 150.054 244.408 150.474L260.102 165.943L260.133 165.981C260.619 166.719 260.853 167.595 260.802 168.477C260.75 169.359 260.415 170.201 259.847 170.877L242.412 191.489C242.464 191.654 242.508 191.822 242.542 191.992C242.688 192.723 242.678 193.476 242.512 194.203C242.346 194.929 242.028 195.613 241.58 196.208C241.132 196.804 240.562 197.297 239.91 197.658C239.257 198.018 238.535 198.236 237.792 198.298C237.642 198.311 237.493 198.318 237.344 198.318C236.226 198.313 235.137 197.955 234.234 197.296C233.331 196.636 232.66 195.708 232.316 194.644Z" fill="#A0616A"/>
<path d="M213.622 292.786L207.725 292.786L204.92 270.051L213.623 270.052L213.622 292.786Z" fill="#A0616A"/>
<path d="M215.126 298.5L196.113 298.499V298.258C196.113 297.287 196.305 296.325 196.677 295.428C197.048 294.53 197.594 293.715 198.281 293.028C198.968 292.341 199.784 291.796 200.682 291.424C201.58 291.053 202.542 290.861 203.514 290.861L215.127 290.862L215.126 298.5Z" fill="#2F2E41"/>
<path d="M272.23 284.637L267.164 287.652L253.117 269.553L260.595 265.103L272.23 284.637Z" fill="#A0616A"/>
<path d="M276.447 288.777L260.11 298.5L259.987 298.293C259.49 297.458 259.162 296.534 259.022 295.573C258.882 294.611 258.933 293.632 259.172 292.69C259.411 291.749 259.833 290.863 260.414 290.085C260.996 289.306 261.725 288.65 262.56 288.153L272.538 282.214L276.447 288.777Z" fill="#2F2E41"/>
<path d="M204.177 282.774C200.227 236.281 197.877 193.09 212.317 175.471L212.429 175.334L236.73 185.051L236.77 185.138C236.852 185.316 244.934 203.086 243.049 215.038L249.043 242.6L268.587 275.311C268.745 275.575 268.844 275.869 268.879 276.173C268.915 276.478 268.885 276.787 268.791 277.079C268.698 277.371 268.544 277.64 268.338 277.868C268.133 278.096 267.882 278.278 267.601 278.402L259.108 282.137C258.628 282.346 258.09 282.374 257.591 282.219C257.092 282.063 256.666 281.732 256.391 281.288L235.13 246.635L223.121 220.055C223.056 219.911 222.945 219.792 222.806 219.717C222.666 219.642 222.506 219.615 222.35 219.64C222.193 219.665 222.049 219.741 221.94 219.856C221.831 219.971 221.763 220.118 221.746 220.276L215.09 282.822C215.034 283.353 214.783 283.845 214.386 284.202C213.988 284.56 213.472 284.757 212.938 284.756H206.335C205.793 284.753 205.272 284.548 204.873 284.182C204.474 283.815 204.226 283.314 204.177 282.774Z" fill="#2F2E41"/>
<path d="M212.399 175.839L212.283 175.784L212.265 175.657C211.357 169.306 212.432 162.249 215.459 154.683C216.951 150.98 219.724 147.936 223.273 146.106C226.822 144.275 230.911 143.78 234.795 144.711C237.032 145.262 239.13 146.271 240.956 147.675C242.783 149.079 244.298 150.847 245.405 152.866C246.498 154.865 247.164 157.069 247.36 159.339C247.557 161.609 247.28 163.894 246.546 166.051C242.73 177.205 237.78 187.641 237.731 187.745L237.627 187.963L212.399 175.839Z" fill="#2F2E41"/>
<path d="M185.885 160.02C186.47 159.558 187.146 159.226 187.869 159.043C188.592 158.861 189.345 158.833 190.079 158.962C190.813 159.091 191.512 159.373 192.13 159.791C192.747 160.209 193.269 160.752 193.662 161.386C193.785 161.587 193.894 161.796 193.989 162.012L217.053 166.672L223.194 152.247C223.429 151.696 223.77 151.197 224.199 150.779C224.628 150.36 225.135 150.031 225.692 149.809C226.249 149.588 226.844 149.479 227.443 149.489C228.042 149.499 228.633 149.627 229.183 149.867C229.732 150.106 230.228 150.452 230.643 150.884C231.058 151.317 231.382 151.827 231.599 152.386C231.815 152.944 231.919 153.54 231.903 154.139C231.888 154.738 231.754 155.327 231.51 155.874L222.511 175.985L222.486 176.028C221.964 176.741 221.226 177.267 220.381 177.527C219.537 177.788 218.631 177.77 217.797 177.475L192.377 168.369C192.24 168.475 192.098 168.575 191.951 168.666C191.317 169.059 190.608 169.313 189.869 169.412C189.13 169.511 188.378 169.453 187.663 169.242C186.949 169.031 186.286 168.671 185.72 168.186C185.154 167.701 184.697 167.102 184.379 166.428C184.314 166.292 184.255 166.154 184.203 166.015C183.816 164.966 183.77 163.822 184.072 162.745C184.374 161.669 185.008 160.715 185.885 160.02Z" fill="#A0616A"/>
<path d="M275.754 141.093C274.616 139.077 272.959 137.232 270.767 136.487C267.937 135.525 264.872 136.549 261.962 137.233C259.72 137.76 257.377 138.082 255.118 137.638C252.858 137.193 250.678 135.878 249.65 133.818C248.137 130.788 249.411 127.174 249.319 123.788C249.272 121.945 248.807 120.137 247.959 118.5C247.111 116.863 245.902 115.44 244.424 114.337C242.945 113.235 241.236 112.483 239.424 112.137C237.613 111.791 235.746 111.861 233.965 112.341C231.179 111.537 228.656 111.463 226.932 113.604C224.764 113.604 222.684 114.465 221.151 115.998C219.617 117.531 218.756 119.609 218.756 121.777H226.574C226.204 123.77 226.627 125.828 227.755 127.513C229.135 129.54 231.535 131.006 231.997 133.414C232.444 135.747 230.858 137.961 229.193 139.658C227.529 141.354 225.598 143.034 225.078 145.353C224.76 147.113 225.121 148.928 226.09 150.432C227.057 151.918 228.256 153.238 229.642 154.343C235.888 159.692 243.31 163.487 251.304 165.42C256.933 166.775 263.09 167.126 268.316 164.634C270.407 163.637 272.27 162.221 273.79 160.474C275.31 158.727 276.454 156.686 277.151 154.478C277.849 152.271 278.085 149.943 277.845 147.64C277.604 145.338 276.893 143.109 275.754 141.093Z" fill="#2F2E41"/>
<path d="M277.519 299H186.135C186.008 299 185.885 298.949 185.795 298.859C185.705 298.769 185.654 298.647 185.654 298.519C185.654 298.392 185.705 298.27 185.795 298.179C185.885 298.089 186.008 298.039 186.135 298.039H277.519C277.647 298.039 277.769 298.089 277.859 298.179C277.949 298.27 278 298.392 278 298.519C278 298.647 277.949 298.769 277.859 298.859C277.769 298.949 277.647 299 277.519 299Z" fill="#CCCCCC"/>
</g>
<defs>
<clipPath id="clip0_100_10938">
<rect width="278" height="299" fill="white"/>
</clipPath>
</defs>
</svg>
