<svg width="216" height="243" viewBox="0 0 216 243" fill="none" xmlns="http://www.w3.org/2000/svg">
<g clip-path="url(#clip0_100_10985)">
<path d="M122.451 187.236C174.117 187.236 216 145.321 216 93.6178C216 41.9141 174.117 0 122.451 0C70.7863 0 28.9033 41.9141 28.9033 93.6178C28.9033 145.321 70.7863 187.236 122.451 187.236Z" fill="#FF0000"/>
<path d="M183.584 41.8657H12.2167C11.8493 41.8578 11.5577 41.5533 11.5656 41.1856C11.5732 40.8289 11.8603 40.5416 12.2167 40.5339H183.584C183.952 40.5418 184.243 40.8463 184.235 41.214C184.228 41.5707 183.94 41.858 183.584 41.8657Z" fill="#CACACA"/>
<path d="M125.183 64.3062H77.8099C74.2517 64.3062 71.3672 67.1928 71.3672 70.7537V70.7537C71.3672 74.3146 74.2517 77.2012 77.8099 77.2012H125.183C128.741 77.2012 131.625 74.3146 131.625 70.7537C131.625 67.1928 128.741 64.3062 125.183 64.3062Z" fill="white"/>
<path d="M47.2064 90.0962H155.785C159.343 90.0962 162.228 92.9829 162.228 96.5437C162.228 100.105 159.343 102.991 155.785 102.991H47.2064C43.6482 102.991 40.7637 100.105 40.7637 96.5437C40.7637 92.9829 43.6482 90.0962 47.2064 90.0962Z" fill="white"/>
<path d="M47.2064 115.886H155.785C159.343 115.886 162.228 118.773 162.228 122.334C162.228 125.895 159.343 128.781 155.785 128.781H47.2064C43.6482 128.781 40.7637 125.895 40.7637 122.334C40.7637 118.773 43.6482 115.886 47.2064 115.886Z" fill="white"/>
<path d="M33.7515 242.433L33.4959 242.408C24.8259 241.513 16.9882 236.846 12.0651 229.648C10.7166 227.643 9.62587 225.475 8.81855 223.197L8.74096 222.98L8.97068 222.961C11.7134 222.74 14.531 222.274 15.7827 222.053L7.71151 219.316L7.6616 219.076C7.18309 216.827 8.12055 214.512 10.0292 213.23C11.9431 211.887 14.481 211.844 16.4391 213.122C17.3179 213.683 18.237 214.24 19.1258 214.778C22.1802 216.627 25.3386 218.538 27.7066 221.155C31.2973 225.201 32.8713 230.653 31.9899 235.992L33.7515 242.433Z" fill="#F2F2F2"/>
<path d="M63.09 238.416L67.0676 238.416L68.9603 223.06L63.0889 223.061L63.09 238.416Z" fill="#A0616A"/>
<path d="M62.9494 242.569L75.1823 242.568V242.414C75.1821 239.782 73.0504 237.649 70.4209 237.649L68.1861 235.952L64.0171 237.649L62.9492 237.649L62.9494 242.569Z" fill="#2F2E41"/>
<path d="M31.21 227.39L34.3917 229.779L45.114 218.632L40.4175 215.107L31.21 227.39Z" fill="#A0616A"/>
<path d="M28.6074 230.628L38.3928 237.974L38.4856 237.85C40.0635 235.745 39.6377 232.759 37.5344 231.179L36.7641 228.48L32.4118 227.333L31.5576 226.692L28.6074 230.628Z" fill="#2F2E41"/>
<path d="M44.4334 166.357C44.4334 166.357 44.653 172.351 44.93 177.159C44.9755 177.947 43.1297 178.804 43.1775 179.661C43.2092 180.231 43.5561 180.784 43.5884 181.377C43.6224 182.003 43.1434 182.558 43.1775 183.205C43.2108 183.838 43.7573 184.563 43.7902 185.211C44.145 192.181 45.4309 200.524 44.1432 202.856C43.5087 204.006 35.4199 219.93 35.4199 219.93C35.4199 219.93 39.9267 226.696 41.2143 224.44C42.915 221.462 56.0222 207.528 56.0222 204.867C56.0222 202.209 59.0546 182.29 59.0546 182.29L61.1691 194.078L62.1386 196.413L61.8339 197.784L62.4605 199.635L62.4943 201.466L63.1043 204.867C63.1043 204.867 61.2694 231.36 62.3028 232.098C63.3393 232.839 68.3579 234.169 68.9502 232.839C69.5393 231.508 73.3738 205.189 73.3738 205.189C73.3738 205.189 73.9918 193.127 74.6614 181.917C74.7 181.266 75.1572 180.48 75.1926 179.839C75.2345 179.094 74.9447 178.128 74.9833 177.406C75.0252 176.579 75.3922 175.995 75.4276 175.203C75.7012 169.079 74.1652 161.621 73.6759 160.887C72.1983 158.67 70.8688 156.899 70.8688 156.899C70.8688 156.899 50.9675 150.355 45.6495 157.004L44.4334 166.357Z" fill="#2F2E41"/>
<path d="M64.2822 104.713L56.3929 103.134L52.7112 108.135C45.8414 114.894 45.738 120.861 46.9643 130.424V143.845L46.0767 152.843C46.0767 152.843 42.9346 159.42 46.1754 160.952C49.4162 162.483 70.7036 162.352 72.7361 161.741C74.7685 161.13 73.0068 160.379 72.4731 157.53C71.4706 152.179 72.1412 154.76 72.2101 153.056C73.1993 128.615 70.8953 118.581 70.6613 115.943L66.649 108.661L64.2822 104.713Z" fill="#3F3D56"/>
<path d="M105.864 124.42C105.041 125.979 103.112 126.576 101.554 125.753C101.388 125.665 101.23 125.563 101.082 125.448L84.0439 136.274L84.0931 130.379L100.644 120.767C101.823 119.445 103.85 119.329 105.172 120.509C106.278 121.496 106.564 123.113 105.864 124.42Z" fill="#A0616A"/>
<path d="M58.0533 111.539L56.1136 111.334C54.3213 111.148 52.5629 111.916 51.4806 113.357C51.0661 113.904 50.7683 114.53 50.6059 115.197L50.6048 115.203C50.1182 117.21 50.8813 119.313 52.5413 120.54L59.2408 125.483C63.9423 131.84 72.7782 136.058 83.1428 139.485L99.2533 129.472L93.555 122.566L82.5047 128.492L66.0792 115.768L66.0697 115.76L59.8181 111.729L58.0533 111.539Z" fill="#3F3D56"/>
<path d="M61.6161 100.836C66.6971 100.836 70.8161 96.7143 70.8161 91.6295C70.8161 86.5447 66.6971 82.4226 61.6161 82.4226C56.535 82.4226 52.416 86.5447 52.416 91.6295C52.416 96.7143 56.535 100.836 61.6161 100.836Z" fill="#A0616A"/>
<path d="M61.8294 100.838C61.7552 100.841 61.6809 100.842 61.6066 100.844C61.5748 100.927 61.5405 101.009 61.501 101.089L61.8294 100.838Z" fill="#2F2E41"/>
<path d="M64.3535 91.8848C64.3679 91.9755 64.39 92.0648 64.4195 92.1518C64.4073 92.0606 64.3852 91.9711 64.3535 91.8848Z" fill="#2F2E41"/>
<path d="M70.9338 82.8165C70.5551 83.9932 70.2172 82.5006 68.9714 82.7691C67.4729 83.092 65.729 82.9811 64.5018 82.0618C62.6733 80.7192 60.3036 80.3578 58.1584 81.0943C56.0586 81.8377 52.5406 82.362 51.9934 84.5227C51.8032 85.2738 51.7277 86.0889 51.2667 86.7114C50.8637 87.2556 50.2275 87.5659 49.6955 87.9848C47.8992 89.3992 49.2721 93.4175 50.1223 95.5407C50.9725 97.664 52.9227 99.2107 55.0668 100.003C57.1414 100.77 59.393 100.905 61.6061 100.844C61.991 99.8454 61.8247 98.6915 61.5071 97.6558C61.1633 96.5346 60.6542 95.4525 60.5105 94.2885C60.3669 93.1246 60.6823 91.8024 61.6576 91.152C62.554 90.5542 64.0127 90.9184 64.3538 91.8849C64.1548 90.6766 65.3779 89.5073 66.6391 89.3016C67.9932 89.0809 69.3472 89.5701 70.6973 89.8136C72.0475 90.0571 71.5683 84.3686 70.9338 82.8165Z" fill="#2F2E41"/>
<path d="M122.387 106.86C123.245 96.4892 115.54 87.3865 105.177 86.5282C94.8141 85.6699 85.7182 93.3811 84.8605 103.751C84.0029 114.122 91.7083 123.225 102.071 124.083C112.434 124.941 121.53 117.23 122.387 106.86Z" fill="#FF0000"/>
<path d="M96.2054 89.469C96.7604 91.1421 95.8549 92.9487 94.1831 93.5041C94.0048 93.5633 93.8217 93.6067 93.6358 93.6336L89.6469 113.432L85.4307 109.316L89.9581 90.7097C89.8204 88.9426 91.1403 87.3985 92.9061 87.2608C94.3836 87.1455 95.7476 88.0584 96.2054 89.469Z" fill="#A0616A"/>
<path d="M53.8182 115.078L52.327 116.336C50.9521 117.502 50.2886 119.304 50.5789 121.083C50.6862 121.761 50.9316 122.41 51.3 122.989L51.303 122.993C52.4133 124.734 54.4583 125.639 56.4923 125.29L64.6946 123.874C72.5337 124.88 81.6922 121.419 91.3385 116.307L95.2718 97.7406L86.3468 97.0742L82.9702 109.157L62.4234 112.209L62.4113 112.211L55.1768 113.935L53.8182 115.078Z" fill="#3F3D56"/>
<path d="M100.523 242.887L0.437112 243C0.194921 242.999 -0.000782129 242.802 2.35022e-06 242.56C0.000779463 242.318 0.196023 242.123 0.437112 242.122L100.523 242.009C100.765 242.01 100.961 242.207 100.96 242.449C100.959 242.691 100.764 242.886 100.523 242.887Z" fill="#CACACA"/>
<path d="M20.9105 33.4308C22.6306 33.4308 24.025 32.0042 24.025 30.2445C24.025 28.4847 22.6306 27.0581 20.9105 27.0581C19.1903 27.0581 17.7959 28.4847 17.7959 30.2445C17.7959 32.0042 19.1903 33.4308 20.9105 33.4308Z" fill="#3F3D56"/>
<path d="M31.6702 33.4308C33.3904 33.4308 34.7848 32.0042 34.7848 30.2445C34.7848 28.4847 33.3904 27.0581 31.6702 27.0581C29.9501 27.0581 28.5557 28.4847 28.5557 30.2445C28.5557 32.0042 29.9501 33.4308 31.6702 33.4308Z" fill="#3F3D56"/>
<path d="M42.429 33.4308C44.1492 33.4308 45.5436 32.0042 45.5436 30.2445C45.5436 28.4847 44.1492 27.0581 42.429 27.0581C40.7089 27.0581 39.3145 28.4847 39.3145 30.2445C39.3145 32.0042 40.7089 33.4308 42.429 33.4308Z" fill="#3F3D56"/>
<path d="M54.6974 32.7629C54.6017 32.7629 54.5063 32.7258 54.4341 32.652L52.3326 30.5021C52.1925 30.3589 52.1925 30.13 52.3326 29.9867L54.4341 27.837C54.5768 27.6916 54.8102 27.6892 54.9549 27.8312C55.1004 27.9736 55.1029 28.207 54.9607 28.3524L53.1111 30.2444L54.9607 32.1366C55.1029 32.282 55.1004 32.5154 54.9549 32.6578C54.8834 32.728 54.7904 32.7629 54.6974 32.7629Z" fill="#3F3D56"/>
<path d="M58.2297 32.7629C58.1367 32.7629 58.0437 32.728 57.9721 32.6578C57.8266 32.5155 57.8241 32.2822 57.9664 32.1366L59.8158 30.2445L57.9664 28.3525C57.8241 28.207 57.8266 27.9736 57.9721 27.8313C58.1173 27.6887 58.3507 27.6914 58.4929 27.837L60.5943 29.9867C60.7344 30.13 60.7344 30.3589 60.5943 30.5022L58.4929 32.6521C58.4208 32.7258 58.3253 32.7629 58.2297 32.7629Z" fill="#3F3D56"/>
<path d="M168.17 27.427H164.263C163.817 27.427 163.456 27.7882 163.456 28.2342V32.1484C163.456 32.5944 163.817 32.9556 164.263 32.9556H168.17C168.616 32.9556 168.981 32.5944 168.981 32.1484V28.2342C168.981 27.7882 168.616 27.427 168.17 27.427Z" fill="#3F3D56"/>
<path d="M158.595 27.427H154.687C154.242 27.427 153.881 27.7882 153.881 28.2342V32.1484C153.881 32.5944 154.242 32.9556 154.687 32.9556H158.595C159.041 32.9556 159.405 32.5944 159.405 32.1484V28.2342C159.405 27.7882 159.041 27.427 158.595 27.427Z" fill="#3F3D56"/>
<path d="M177.194 27.6113H173.286C172.84 27.6113 172.479 27.9725 172.479 28.4185V32.3328C172.479 32.7787 172.84 33.1399 173.286 33.1399H177.194C177.639 33.1399 178.004 32.7787 178.004 32.3328V28.4185C178.004 27.9725 177.639 27.6113 177.194 27.6113Z" fill="#3F3D56"/>
<path d="M118.295 29.1003H87.0595C86.5145 29.1003 86.0762 29.5426 86.0762 30.0845C86.0762 30.6263 86.5145 31.0685 87.0595 31.0685H118.295C118.836 31.0685 119.278 30.6262 119.278 30.0845C119.278 29.5427 118.836 29.1003 118.295 29.1003Z" fill="#3F3D56"/>
<path d="M108.145 98.0267L97.0267 109.145C96.1916 109.98 96.1478 111.29 96.9289 112.071L96.9289 112.071C97.7099 112.852 99.02 112.808 99.8551 111.973L110.973 100.855C111.808 100.02 111.852 98.7099 111.071 97.9288C110.29 97.1478 108.98 97.1916 108.145 98.0267Z" fill="white"/>
<path d="M110.973 109.145L99.8548 98.0267C99.0197 97.1916 97.7096 97.1478 96.9286 97.9289L96.9286 97.9289C96.1475 98.7099 96.1913 100.02 97.0264 100.855L108.144 111.973C108.98 112.808 110.29 112.852 111.071 112.071C111.852 111.29 111.808 109.98 110.973 109.145Z" fill="white"/>
</g>
<defs>
<clipPath id="clip0_100_10985">
<rect width="216" height="243" fill="white"/>
</clipPath>
</defs>
</svg>
