<svg width="396" height="238" viewBox="0 0 396 238" fill="none" xmlns="http://www.w3.org/2000/svg">
<g clip-path="url(#clip0_100_10915)">
<path d="M66.4515 226.55C66.1342 226.564 65.8201 226.481 65.5517 226.311C65.2833 226.141 65.0737 225.892 64.9512 225.599C64.8286 225.305 64.7991 224.981 64.8667 224.67C64.9342 224.36 65.0955 224.077 65.3288 223.861L65.4349 223.439C65.4209 223.405 65.4069 223.371 65.3927 223.337C65.0731 222.581 64.5375 221.937 63.8532 221.484C63.1689 221.032 62.3664 220.793 61.5465 220.796C60.7266 220.799 59.9259 221.044 59.245 221.502C58.564 221.959 58.0332 222.607 57.7192 223.366C56.4642 226.393 54.8663 229.425 54.4728 232.625C54.2995 234.04 54.3726 235.474 54.6889 236.863C51.7411 230.424 50.2104 223.426 50.2006 216.343C50.1999 214.565 50.2986 212.789 50.496 211.023C50.6591 209.575 50.8854 208.137 51.175 206.71C52.7549 198.964 56.1471 191.705 61.073 185.527C63.4571 184.224 65.3851 182.221 66.5973 179.787C67.0365 178.913 67.3469 177.979 67.5188 177.015C67.2499 177.05 66.5048 172.949 66.7076 172.697C66.3328 172.128 65.662 171.845 65.2527 171.289C63.2169 168.525 60.4121 169.008 58.9479 172.763C55.82 174.344 55.7897 176.966 57.709 179.487C58.93 181.091 59.0978 183.262 60.1692 184.979C60.0589 185.121 59.9443 185.258 59.8341 185.399C57.8192 187.993 56.0631 190.779 54.5909 193.717C54.9489 190.426 54.5216 187.097 53.3441 184.004C52.1508 181.121 49.9141 178.693 47.9444 176.201C45.5784 173.208 40.7268 174.514 40.31 178.309C40.306 178.345 40.302 178.382 40.2982 178.419C40.5907 178.584 40.8771 178.76 41.1574 178.945C41.5094 179.181 41.7821 179.517 41.9399 179.911C42.0977 180.304 42.1331 180.736 42.0415 181.15C41.95 181.564 41.7357 181.94 41.4267 182.23C41.1178 182.52 40.7286 182.71 40.3102 182.774L40.2673 182.781C40.3716 183.837 40.5558 184.883 40.8184 185.911C38.2915 195.696 43.7469 199.26 51.5365 199.421C51.7084 199.509 51.876 199.597 52.048 199.681C50.5689 203.878 49.6411 208.25 49.288 212.687C49.0881 215.305 49.0999 217.934 49.3233 220.55L49.31 220.458C48.7456 217.549 47.1961 214.924 44.9231 213.027C41.5472 210.25 36.7776 209.228 33.1356 206.996C32.7485 206.747 32.2984 206.614 31.8385 206.613C31.3785 206.612 30.9278 206.742 30.5395 206.989C30.1513 207.236 29.8416 207.589 29.6471 208.007C29.4526 208.424 29.3814 208.888 29.4418 209.345C29.4467 209.377 29.4516 209.41 29.4567 209.442C29.9996 209.664 30.5282 209.919 31.0395 210.206C31.332 210.371 31.6184 210.547 31.8986 210.732C32.2507 210.968 32.5234 211.304 32.6812 211.698C32.839 212.091 32.8744 212.523 32.7828 212.937C32.6912 213.351 32.4769 213.727 32.168 214.017C31.8591 214.307 31.4699 214.497 31.0515 214.561L31.0086 214.568C30.9777 214.572 30.9513 214.577 30.9205 214.581C31.8481 216.799 33.1501 218.841 34.7694 220.616C36.3494 229.159 43.1355 229.969 50.3946 227.482H50.399C51.1955 230.947 52.3495 234.321 53.8424 237.548H66.1432C66.1874 237.411 66.227 237.269 66.2667 237.133C65.1281 237.204 63.9851 237.136 62.863 236.93C63.7757 235.808 64.6883 234.678 65.601 233.557C65.6213 233.536 65.6405 233.513 65.6583 233.49C66.1212 232.916 66.5886 232.347 67.0515 231.773L67.0518 231.772C67.0764 230.013 66.8744 228.258 66.4515 226.55Z" fill="#F2F2F2"/>
<path d="M323.375 226.55C323.692 226.564 324.006 226.481 324.275 226.311C324.543 226.141 324.753 225.892 324.875 225.599C324.998 225.305 325.027 224.981 324.96 224.67C324.892 224.36 324.731 224.077 324.498 223.861L324.392 223.439C324.406 223.405 324.42 223.371 324.434 223.337C324.753 222.581 325.289 221.937 325.973 221.484C326.658 221.032 327.46 220.793 328.28 220.796C329.1 220.799 329.9 221.044 330.581 221.502C331.262 221.959 331.793 222.607 332.107 223.366C333.362 226.393 334.96 229.425 335.354 232.625C335.527 234.04 335.454 235.474 335.138 236.863C338.085 230.424 339.616 223.426 339.626 216.343C339.626 214.565 339.528 212.789 339.33 211.023C339.167 209.575 338.941 208.137 338.651 206.71C337.072 198.964 333.679 191.705 328.753 185.527C326.369 184.224 324.441 182.221 323.229 179.787C322.79 178.913 322.48 177.979 322.308 177.015C322.577 177.05 323.322 172.949 323.119 172.697C323.494 172.128 324.164 171.845 324.574 171.289C326.61 168.525 329.414 169.008 330.879 172.763C334.006 174.344 334.037 176.966 332.117 179.487C330.896 181.091 330.729 183.262 329.657 184.979C329.768 185.121 329.882 185.258 329.992 185.399C332.007 187.993 333.763 190.779 335.236 193.717C334.878 190.426 335.305 187.097 336.482 184.004C337.676 181.121 339.912 178.693 341.882 176.201C344.248 173.208 349.1 174.514 349.516 178.309C349.52 178.345 349.524 178.382 349.528 178.419C349.236 178.584 348.949 178.76 348.669 178.945C348.317 179.181 348.044 179.517 347.887 179.911C347.729 180.304 347.693 180.736 347.785 181.15C347.876 181.564 348.091 181.94 348.4 182.23C348.709 182.52 349.098 182.71 349.516 182.774L349.559 182.781C349.455 183.837 349.271 184.883 349.008 185.911C351.535 195.696 346.079 199.26 338.29 199.421C338.118 199.509 337.95 199.597 337.778 199.681C339.258 203.878 340.185 208.25 340.538 212.687C340.738 215.305 340.727 217.934 340.503 220.55L340.516 220.458C341.081 217.549 342.63 214.924 344.903 213.027C348.279 210.25 353.049 209.228 356.691 206.996C357.078 206.747 357.528 206.614 357.988 206.613C358.448 206.612 358.899 206.742 359.287 206.989C359.675 207.236 359.985 207.589 360.179 208.007C360.374 208.424 360.445 208.888 360.385 209.345C360.38 209.377 360.375 209.41 360.37 209.442C359.827 209.664 359.298 209.919 358.787 210.206C358.494 210.371 358.208 210.547 357.928 210.732C357.576 210.968 357.303 211.304 357.145 211.698C356.987 212.091 356.952 212.523 357.044 212.937C357.135 213.351 357.349 213.727 357.658 214.017C357.967 214.307 358.357 214.497 358.775 214.561L358.818 214.568C358.849 214.572 358.875 214.577 358.906 214.581C357.978 216.799 356.676 218.841 355.057 220.616C353.477 229.159 346.691 229.969 339.432 227.482H339.427C338.631 230.947 337.477 234.321 335.984 237.548H323.683C323.639 237.411 323.599 237.269 323.56 237.133C324.698 237.204 325.841 237.136 326.963 236.93C326.051 235.808 325.138 234.678 324.225 233.557C324.205 233.536 324.186 233.513 324.168 233.49C323.705 232.916 323.238 232.347 322.775 231.773L322.775 231.772C322.75 230.013 322.952 228.258 323.375 226.55Z" fill="#F2F2F2"/>
<path d="M80.5996 237.272H100.449C103.844 225.825 100.467 198.774 104.942 187.717C113.527 166.517 124.495 144.148 144.966 133.796C153.706 129.376 163.236 127.65 172.968 127.744C186.413 127.872 200.236 131.486 212.891 136.275C218.067 138.23 223.197 140.379 228.306 142.576C247.555 150.859 266.595 159.88 287.295 162.318C313.489 165.402 344.286 153.666 351.44 128.389C356.9 109.036 347.067 88.9446 336.754 71.6608C326.441 54.377 314.913 35.8841 316.796 15.873C316.803 15.8059 316.81 15.7319 316.823 15.6648C317.532 8.47718 321.818 3.31166 327.804 0H301.738C301.394 18.6676 312.18 35.1452 321.885 51.4146C332.198 68.6917 342.032 88.7901 336.572 108.143C329.417 133.414 270.177 103.791 243.983 100.701C236.585 99.8345 248.336 102.918 241.283 100.701C230.221 97.2281 228.994 129.081 218.229 124.406C211.527 121.49 204.818 118.595 198.022 116.022C195.207 114.954 192.332 113.953 189.423 113.026C189.416 113.026 189.416 113.026 189.41 113.02C169.877 106.826 148.516 104.415 130.468 113.369C130.347 113.429 130.218 113.49 130.097 113.55C109.626 123.895 98.6586 146.264 90.0735 167.464C82.98 184.99 84.0957 218.785 80.5996 237.272Z" fill="#F2F2F2"/>
<path d="M191.035 236.686C241.386 236.686 282.203 195.813 282.203 145.394C282.203 94.9751 241.386 54.1025 191.035 54.1025C140.684 54.1025 99.8672 94.9751 99.8672 145.394C99.8672 195.813 140.684 236.686 191.035 236.686Z" fill="white"/>
<path d="M190.775 237.272C100.574 239.347 98.5957 196.435 98.5957 145.394C98.5957 94.3539 140.064 52.8293 191.035 52.8293C242.007 52.8293 283.475 94.354 283.475 145.394C283.475 196.435 241.746 237.272 190.775 237.272ZM191.035 55.3764C141.466 55.3764 101.974 95.7651 101.139 145.394C100.363 191.555 149.335 249.157 191.035 235.412C213.398 210.75 276.624 184.187 280.931 145.394C286.409 96.062 240.604 55.3764 191.035 55.3764Z" fill="#3F3D56"/>
<path d="M178.598 192.907C177.024 192.907 175.471 192.54 174.063 191.835C172.655 191.13 171.43 190.106 170.486 188.844L145.614 155.636C144.814 154.569 144.232 153.355 143.901 152.063C143.57 150.771 143.497 149.426 143.685 148.106C143.873 146.785 144.319 145.515 144.997 144.367C145.676 143.219 146.574 142.216 147.64 141.416C148.705 140.616 149.918 140.033 151.209 139.702C152.499 139.372 153.842 139.299 155.161 139.488C156.479 139.677 157.748 140.124 158.894 140.804C160.04 141.484 161.041 142.383 161.84 143.451L178.112 165.175L219.905 102.402C221.397 100.162 223.717 98.6079 226.353 98.0805C228.99 97.5532 231.728 98.0959 233.965 99.5894C236.202 101.083 237.756 103.405 238.284 106.045C238.812 108.685 238.271 111.427 236.781 113.668L187.037 188.385C186.137 189.736 184.927 190.852 183.508 191.638C182.088 192.424 180.501 192.858 178.88 192.904C178.786 192.905 178.692 192.907 178.598 192.907Z" fill="#F2F2F2"/>
<path d="M2.9064e-06 237.343C-0.000254268 237.429 0.0165581 237.515 0.0494679 237.595C0.0823778 237.674 0.130739 237.747 0.191767 237.808C0.252796 237.869 0.325283 237.918 0.405069 237.951C0.484855 237.984 0.570367 238 0.656671 238H395.343C395.518 238 395.685 237.931 395.808 237.808C395.931 237.684 396 237.517 396 237.343C396 237.168 395.931 237.001 395.808 236.878C395.685 236.754 395.518 236.685 395.343 236.685H0.656671C0.570367 236.685 0.484862 236.702 0.405077 236.735C0.325293 236.768 0.252804 236.816 0.191776 236.877C0.130748 236.938 0.0823872 237.011 0.0494764 237.091C0.0165655 237.171 -0.000251338 237.256 2.9064e-06 237.343Z" fill="#CCCCCC"/>
<path d="M249.252 230.897H243.914L241.375 210.278L249.254 210.278L249.252 230.897Z" fill="#FFB6B6"/>
<path d="M249.441 236.473L233.025 236.473V236.265C233.026 234.568 233.699 232.941 234.897 231.741C236.095 230.541 237.72 229.867 239.415 229.867L242.414 227.589L248.009 229.867L249.442 229.867L249.441 236.473Z" fill="#2F2E41"/>
<path d="M226.045 205.343L221.114 207.391L210.88 189.319L218.158 186.297L226.045 205.343Z" fill="#FFB6B6"/>
<path d="M228.352 210.422L213.188 216.719L213.108 216.527C212.459 214.959 212.459 213.198 213.106 211.63C213.754 210.062 214.998 208.816 216.563 208.166L218.462 204.911L224.501 204.869L225.825 204.32L228.352 210.422Z" fill="#2F2E41"/>
<path d="M255.357 113.606L217.472 117.57L212.405 134.661L194.854 162.903C194.854 162.903 207.101 183.542 205.951 183.318C204.801 183.093 207.099 188.719 208.709 188.392C210.319 188.066 211.993 191.734 210.88 192.386C209.767 193.038 214.232 198.553 214.232 198.553L221.056 192.42C222.508 181.456 220.754 171.698 214.506 163.632L234.057 142.496L237.765 140.955L240.707 219.386L251.592 219.565C254.596 204.093 256.105 190.169 253.757 180.235C253.757 180.235 254.094 150.393 255.382 150.719C256.669 151.046 255.578 147.158 255.578 147.158C255.578 147.158 254.45 143.847 255.835 142.474C257.221 141.1 256.356 133.022 256.356 133.022C258.644 125.376 257.955 119.064 255.357 113.606Z" fill="#2F2E41"/>
<path d="M226.228 50.5338L236.701 47.8162L241.59 41.0642L253.2 42.4934L255.672 51.7032L263.937 56.5075C263.937 56.5075 259.369 104.894 260.455 107.551C261.542 110.207 265.439 109.988 262.111 113.413C258.783 116.838 258.342 115.458 259.115 119.187C259.887 122.916 265.516 126.862 259.115 126.823C252.714 126.783 214.089 126.231 215.192 121.811C216.296 117.39 216.278 118.513 217.942 115.741C219.606 112.97 220.726 114.519 220.166 110.429C219.606 106.34 220.158 103.577 220.158 101.367C220.158 99.1568 222.007 79.073 222.007 79.073L226.228 50.5338Z" fill="#E6E6E6"/>
<path d="M247.366 39.8161C254.161 39.8161 259.669 34.3002 259.669 27.496C259.669 20.6917 254.161 15.1758 247.366 15.1758C240.571 15.1758 235.062 20.6917 235.062 27.496C235.062 34.3002 240.571 39.8161 247.366 39.8161Z" fill="#FFB6B6"/>
<path d="M234.474 20.04C235.554 20.9142 235.307 25.1657 236.51 24.4727C237.714 23.7797 237.965 22.5388 239.351 22.5258C240.481 22.5883 241.547 23.0713 242.34 23.8801C242.487 24.0137 242.628 24.1536 242.764 24.292C242.889 24.2483 243.012 24.2086 243.141 24.1761C244.113 23.9384 245.139 24.0831 246.008 24.5804C245.206 24.6377 244.442 24.9462 243.824 25.4621C244.089 25.7591 244.358 26.0576 244.64 26.3336C246.996 28.6459 251.828 26.1834 255.076 25.6278C252.371 28.5861 252.904 30.2375 253.577 34.1916L253.58 34.4076C253.718 33.4957 256.635 33.5412 256.154 34.7511C255.55 35.9464 254.794 37.0586 253.906 38.06C257.88 35.3033 261.088 31.5034 261.797 26.9133C261.942 25.9482 262.226 24.9635 261.952 24.0225C261.835 23.5467 261.564 23.123 261.182 22.8176C260.799 22.5122 260.326 22.3423 259.837 22.3345C260.28 20.9264 260.333 19.4246 259.992 17.9886C259.65 16.5527 258.926 15.2362 257.897 14.1793C256.868 13.1223 255.572 12.3644 254.147 11.986C252.722 11.6077 251.222 11.623 249.805 12.0305C248.512 12.4904 247.252 13.0353 246.031 13.6615C244.799 14.2902 243.404 14.5267 242.034 14.3395C241.18 14.1629 240.316 13.7203 239.479 13.9709C238.51 14.2621 238.093 15.2873 237.704 16.277C238.434 16.5438 239.067 17.0222 239.524 17.6512C238.77 17.3726 237.947 17.3391 237.173 17.5556C237.159 17.5581 237.145 17.5619 237.131 17.567C236.253 19.142 236.203 19.5282 234.474 20.04Z" fill="#2F2E41"/>
<path d="M238.531 44.516C232.229 44.008 226.475 48.834 223.851 54.594C221.228 60.354 221.056 66.8883 220.929 73.2177L220.533 92.8926C220.474 95.8041 220.416 98.716 220.271 101.624C220.196 104.455 219.841 107.27 219.21 110.03C217.925 115.094 215.098 119.606 212.313 124.024C219.444 126.183 226.695 127.917 234.03 129.218C237.693 117.354 241.398 105.15 240.497 92.7647C240.021 86.211 238.261 79.8124 237.591 73.2757C236.644 64.0178 237.9 54.6917 239.153 45.4704" fill="#3F3D56"/>
<path d="M253.827 45.6226C260.069 46.6276 264.514 52.6838 265.697 58.9028C266.879 65.1219 265.497 71.5101 264.119 77.6888C262.692 84.0909 261.265 90.493 259.838 96.8951C259.204 99.7372 258.571 102.58 258.022 105.439C257.488 108.217 259.722 111.78 259.748 114.609C259.795 119.834 258.782 124.137 260.439 129.091C253.001 129.492 245.546 129.452 238.112 128.972C237.368 116.576 236.663 103.84 240.475 92.0233C242.492 85.7704 245.719 79.9735 247.919 73.7828C251.035 65.0151 252.027 55.6572 252.996 46.4015" fill="#3F3D56"/>
<path d="M257.989 134.94C257.525 134.131 257.395 133.173 257.627 132.27C257.858 131.366 258.432 130.589 259.227 130.103C259.39 130.006 259.561 129.924 259.737 129.856L258.941 102.718L267.564 100.52L264.276 132.137C264.501 132.893 264.47 133.702 264.187 134.438C263.905 135.174 263.387 135.796 262.715 136.206C262.33 136.436 261.903 136.588 261.46 136.653C261.017 136.717 260.565 136.694 260.13 136.584C259.696 136.474 259.287 136.28 258.928 136.012C258.569 135.743 258.265 135.407 258.036 135.022C258.02 134.995 258.004 134.968 257.989 134.94Z" fill="#FFB6B6"/>
<path d="M257.36 56.4642C257.36 56.4642 263.378 51.3675 268.443 61.5582C273.507 71.7488 270.677 95.0294 269.964 96.2719C269.251 97.5144 268.816 95.7835 269.207 99.0955C269.524 101.789 267.636 101.452 268.313 102.027C270.099 103.543 265.098 103.715 267.667 105.051C270.235 106.386 258.74 106.636 258.74 106.636C258.74 106.636 257.349 105.642 258.315 101.893C258.857 99.7866 260.215 99.0162 258.767 98.0417C257.319 97.0671 260.263 94.0545 260.265 93.3934C260.267 92.7323 255.674 78.2742 255.674 78.2742L257.36 56.4642Z" fill="#3F3D56"/>
<path d="M207.555 182.004C205.981 182.004 204.428 181.637 203.02 180.932C201.612 180.227 200.387 179.203 199.443 177.941L174.571 144.733C173.771 143.666 173.189 142.452 172.858 141.16C172.527 139.868 172.454 138.523 172.642 137.203C172.83 135.882 173.276 134.612 173.955 133.464C174.633 132.316 175.531 131.313 176.597 130.513C177.662 129.713 178.875 129.13 180.166 128.8C181.456 128.469 182.799 128.396 184.118 128.585C185.436 128.774 186.705 129.221 187.851 129.901C188.997 130.581 189.998 131.481 190.797 132.548L207.069 154.272L248.862 91.4986C249.6 90.389 250.55 89.436 251.657 88.6939C252.763 87.9519 254.005 87.4353 255.311 87.1738C256.617 86.9122 257.961 86.9108 259.268 87.1696C260.574 87.4284 261.817 87.9424 262.925 88.6821C264.033 89.4219 264.985 90.3729 265.726 91.481C266.467 92.589 266.983 93.8324 267.244 95.1401C267.505 96.4478 267.507 97.7942 267.248 99.1024C266.99 100.411 266.477 101.655 265.738 102.765L215.994 177.482C215.094 178.833 213.884 179.949 212.465 180.735C211.045 181.521 209.459 181.955 207.837 182.001C207.743 182.003 207.649 182.004 207.555 182.004Z" fill="#0C9420"/>
<path d="M226.515 130.227C227.023 129.445 227.205 128.495 227.024 127.58C226.843 126.665 226.313 125.857 225.546 125.328C225.389 125.223 225.223 125.131 225.05 125.053L227.342 98.0003L218.854 95.3289L220.392 127.08C220.126 127.822 220.113 128.631 220.354 129.382C220.595 130.132 221.078 130.782 221.727 131.229C222.098 131.48 222.516 131.655 222.955 131.744C223.394 131.833 223.846 131.835 224.286 131.749C224.726 131.664 225.145 131.492 225.518 131.244C225.892 130.996 226.213 130.677 226.464 130.305C226.481 130.279 226.498 130.253 226.515 130.227Z" fill="#FFB6B6"/>
<path d="M231.482 51.9607C231.482 51.9607 225.754 46.5387 220.134 56.4335C214.515 66.3283 216.056 89.7299 216.7 91.01C217.343 92.2901 217.873 90.5859 217.3 93.8712C216.834 96.5431 218.738 96.3112 218.03 96.8477C216.163 98.2622 221.147 98.7113 218.509 99.9026C215.871 101.094 227.335 101.98 227.335 101.98C227.335 101.98 228.778 101.064 228.02 97.2667C227.595 95.134 226.282 94.2896 227.782 93.3967C229.282 92.5038 226.508 89.3328 226.543 88.6726C226.577 88.0125 231.961 73.8307 231.961 73.8307L231.482 51.9607Z" fill="#3F3D56"/>
</g>
<defs>
<clipPath id="clip0_100_10915">
<rect width="396" height="238" fill="white"/>
</clipPath>
</defs>
</svg>
