<svg width="282" height="223" viewBox="0 0 282 223" fill="none" xmlns="http://www.w3.org/2000/svg">
<g clip-path="url(#clip0_100_11100)">
<path d="M51.4158 26.3017C50.886 26.3604 50.3754 26.5348 49.9201 26.8127C49.4647 27.0906 49.0756 27.4653 48.7803 27.9103C48.485 28.3553 48.2905 28.8598 48.2107 29.3883C48.1308 29.9168 48.1675 30.4565 48.3181 30.9692L37.7754 38.5238L44.0597 40.9489L53.1077 33.4031C53.95 33.0923 54.6493 32.4825 55.0731 31.6892C55.4969 30.8959 55.6158 29.9742 55.4073 29.0989C55.1987 28.2235 54.6772 27.4553 53.9416 26.9398C53.2059 26.4243 52.3073 26.1972 51.4158 26.3017Z" fill="#FFB8B8"/>
<path d="M50.4349 37.681L37.3577 50.8756C35.5655 52.6723 33.2022 53.7825 30.6786 54.0135L14.5195 55.4919C13.9271 55.5486 13.3294 55.4856 12.7616 55.3067C12.1939 55.1278 11.6677 54.8366 11.2141 54.4503C10.5866 53.9236 10.12 53.2301 9.86787 52.4495C9.61573 51.6688 9.58832 50.8327 9.78877 50.0371C9.98922 49.2415 10.4094 48.5187 11.0011 47.9519C11.5927 47.385 12.3319 46.997 13.1335 46.8324L29.6419 43.3076L44.6715 32.198C44.8804 32.0801 45.1165 32.019 45.3562 32.0208C45.596 32.0226 45.8311 32.0872 46.0383 32.2082L50.1255 35.5657C50.3714 35.7009 50.569 35.9098 50.6904 36.1633C50.8119 36.4167 50.8512 36.7019 50.8028 36.9789C50.7551 37.2453 50.6266 37.4905 50.4349 37.681Z" fill="#2F2E41"/>
<path d="M207.222 44.7719C207.319 43.8712 207.138 42.9622 206.702 42.1686C206.266 41.375 205.597 40.7352 204.786 40.3361L123.401 0.448585C122.884 0.194682 122.321 0.0454833 121.746 0.00951212C121.171 -0.026459 120.595 0.0514987 120.05 0.238936C119.505 0.426373 119.002 0.719619 118.57 1.10193C118.138 1.48424 117.785 1.94812 117.532 2.4671L117.531 2.47016L87.0062 65.097C86.4968 66.146 86.4229 67.3547 86.8008 68.4583C87.1787 69.5618 87.9775 70.47 89.0222 70.9839L170.407 110.871C171.453 111.382 172.658 111.456 173.759 111.077C174.859 110.698 175.765 109.897 176.277 108.85L206.802 46.223C207.025 45.7675 207.167 45.2764 207.222 44.7719Z" fill="#F2F2F2"/>
<path d="M159.545 183.772H53.9442C52.6148 183.771 51.3402 183.241 50.4001 182.298C49.46 181.355 48.9312 180.077 48.9297 178.744V34.9887C48.9312 33.6555 49.46 32.3774 50.4001 31.4347C51.3402 30.492 52.6148 29.9617 53.9442 29.9602H159.545C160.874 29.9617 162.149 30.492 163.089 31.4347C164.029 32.3774 164.558 33.6555 164.559 34.9887V178.744C164.558 180.077 164.029 181.355 163.089 182.298C162.149 183.241 160.874 183.771 159.545 183.772Z" fill="white"/>
<path d="M81.9521 72.8267C85.7571 72.8267 88.8416 69.7335 88.8416 65.918C88.8416 62.1024 85.7571 59.0093 81.9521 59.0093C78.1471 59.0093 75.0625 62.1024 75.0625 65.918C75.0625 69.7335 78.1471 72.8267 81.9521 72.8267Z" fill="#E6E6E6"/>
<path d="M71.4512 84.8003C72.4247 85.3552 73.4435 85.826 74.4967 86.2077L74.6828 86.2723C76.8041 87.0191 79.0364 87.3994 81.2846 87.3967C81.737 87.3967 82.1727 87.3809 82.5799 87.35C83.5706 87.2891 84.5552 87.153 85.5254 86.9427C86.0578 86.8261 86.5885 86.6865 87.102 86.5285C87.2262 86.4918 87.3412 86.4557 87.4671 86.4161C89.5599 85.7357 91.5265 84.7138 93.2877 83.3916C93.1463 83.1235 92.9915 82.8627 92.824 82.6102C91.9184 81.2228 90.6821 80.0836 89.2269 79.296C87.7717 78.5083 86.1437 78.0969 84.4901 78.0991H80.864C78.9514 78.0995 77.0792 78.6511 75.4704 79.6882C73.8615 80.7253 72.5839 82.2043 71.7895 83.9489C71.6625 84.2268 71.5496 84.511 71.4512 84.8003Z" fill="#E6E6E6"/>
<path d="M84.29 86.7707C84.0586 86.7878 83.8359 86.8662 83.6445 86.9977C84.6167 86.9371 85.5829 86.8026 86.5348 86.5955L84.29 86.7707Z" fill="#2F2E41"/>
<path d="M82.3712 47.1702C77.9339 47.1706 73.6209 48.6399 70.1016 51.3499C66.5823 54.06 64.0535 57.8592 62.9078 62.158C61.7621 66.4567 62.0636 71.0144 63.7654 75.1237C65.4672 79.2331 68.4742 82.6641 72.3196 84.8844C73.3404 85.4771 74.412 85.9773 75.5215 86.3788L75.71 86.4443C77.8504 87.1978 80.1028 87.5814 82.3712 87.5788C82.81 87.5788 83.2487 87.5642 83.6802 87.5315C84.679 87.4699 85.6718 87.3326 86.65 87.1206C87.1976 87.0006 87.7342 86.8588 88.2419 86.7025C88.3651 86.6661 88.4811 86.6297 88.608 86.5897C93.1685 85.1002 97.0496 82.0282 99.5537 77.9261C102.058 73.824 103.02 68.9607 102.269 64.2105C101.517 59.4602 99.1008 55.1346 95.4535 52.0111C91.8063 48.8876 87.1676 47.1711 82.3712 47.1702ZM94.0617 82.51C92.3234 83.855 90.3669 84.8895 88.2781 85.568C88.1657 85.6043 88.0496 85.6407 87.9336 85.677C87.4513 85.8261 86.9437 85.957 86.4215 86.0697C85.4962 86.2723 84.5567 86.4036 83.6113 86.4624C83.2016 86.4915 82.7845 86.5061 82.3712 86.5061C80.224 86.5074 78.0921 86.1447 76.0654 85.4334L75.8878 85.3716C74.7842 84.9739 73.7206 84.4723 72.7113 83.8735C69.196 81.7982 66.4372 78.647 64.8403 74.883C63.2434 71.1189 62.8926 66.9405 63.8394 62.9617C64.7862 58.9828 66.9808 55.4134 70.1005 52.778C73.2202 50.1426 77.1007 48.5801 81.1717 48.3201C85.2426 48.0601 89.2894 49.1163 92.7174 51.3336C96.1453 53.5508 98.7737 56.8122 100.216 60.6384C101.659 64.4646 101.839 68.6539 100.732 72.5907C99.6238 76.5275 97.286 80.0043 94.0617 82.51Z" fill="#CCCCCC"/>
<path d="M159.545 183.772H53.9442C52.6148 183.771 51.3402 183.241 50.4001 182.298C49.46 181.355 48.9312 180.077 48.9297 178.744V34.9887C48.9312 33.6555 49.46 32.3774 50.4001 31.4347C51.3402 30.492 52.6148 29.9617 53.9442 29.9602H159.545C160.874 29.9617 162.149 30.492 163.089 31.4347C164.029 32.3774 164.558 33.6555 164.559 34.9887V178.744C164.558 180.077 164.029 181.355 163.089 182.298C162.149 183.241 160.874 183.771 159.545 183.772ZM53.9442 30.5518C52.7712 30.5531 51.6465 31.021 50.817 31.8528C49.9876 32.6846 49.521 33.8124 49.5196 34.9887V178.744C49.521 179.92 49.9876 181.048 50.817 181.88C51.6465 182.712 52.7712 183.179 53.9442 183.181H159.545C160.718 183.179 161.843 182.712 162.672 181.88C163.502 181.048 163.968 179.92 163.97 178.744V34.9887C163.968 33.8124 163.502 32.6846 162.672 31.8528C161.843 31.021 160.718 30.5531 159.545 30.5518L53.9442 30.5518Z" fill="#CCCCCC"/>
<path d="M139.101 67.2964H109.219C108.592 67.2964 107.991 67.0467 107.548 66.6021C107.105 66.1576 106.855 65.5546 106.855 64.9259C106.855 64.2972 107.105 63.6943 107.548 63.2497C107.991 62.8052 108.592 62.5554 109.219 62.5554H139.101C139.728 62.5554 140.329 62.8052 140.772 63.2497C141.216 63.6943 141.465 64.2972 141.465 64.9259C141.465 65.5546 141.216 66.1576 140.772 66.6021C140.329 67.0467 139.728 67.2964 139.101 67.2964Z" fill="#E6E6E6"/>
<path d="M148.852 75.2969H109.219C108.592 75.2969 107.991 75.0472 107.548 74.6026C107.105 74.1581 106.855 73.5551 106.855 72.9264C106.855 72.2977 107.105 71.6948 107.548 71.2502C107.991 70.8057 108.592 70.5559 109.219 70.5559H148.852C149.479 70.5559 150.08 70.8057 150.524 71.2502C150.967 71.6948 151.216 72.2977 151.216 72.9264C151.216 73.5551 150.967 74.1581 150.524 74.6026C150.08 75.0472 149.479 75.2969 148.852 75.2969Z" fill="#E6E6E6"/>
<path d="M139.058 105.982H64.6354C64.0085 105.982 63.4072 105.732 62.9639 105.288C62.5205 104.843 62.2715 104.24 62.2715 103.611C62.2715 102.983 62.5205 102.38 62.9639 101.935C63.4072 101.491 64.0085 101.241 64.6354 101.241H139.058C139.685 101.241 140.286 101.491 140.729 101.935C141.173 102.38 141.422 102.983 141.422 103.611C141.422 104.24 141.173 104.843 140.729 105.288C140.286 105.732 139.685 105.982 139.058 105.982Z" fill="#E6E6E6"/>
<path d="M148.809 113.982H64.6354C64.0085 113.982 63.4072 113.733 62.9639 113.288C62.5205 112.844 62.2715 112.241 62.2715 111.612C62.2715 110.983 62.5205 110.38 62.9639 109.936C63.4072 109.491 64.0085 109.241 64.6354 109.241H148.809C149.436 109.241 150.037 109.491 150.481 109.936C150.924 110.38 151.173 110.983 151.173 111.612C151.173 112.241 150.924 112.844 150.481 113.288C150.037 113.733 149.436 113.982 148.809 113.982Z" fill="#E6E6E6"/>
<path d="M139.058 132.371H64.6354C64.0085 132.371 63.4072 132.121 62.9639 131.676C62.5205 131.232 62.2715 130.629 62.2715 130C62.2715 129.371 62.5205 128.769 62.9639 128.324C63.4072 127.879 64.0085 127.63 64.6354 127.63H139.058C139.685 127.63 140.286 127.879 140.729 128.324C141.173 128.769 141.422 129.371 141.422 130C141.422 130.629 141.173 131.232 140.729 131.676C140.286 132.121 139.685 132.371 139.058 132.371Z" fill="#E6E6E6"/>
<path d="M148.809 140.371H64.6354C64.0085 140.371 63.4072 140.121 62.9639 139.677C62.5205 139.232 62.2715 138.629 62.2715 138.001C62.2715 137.372 62.5205 136.769 62.9639 136.324C63.4072 135.88 64.0085 135.63 64.6354 135.63H148.809C149.436 135.63 150.037 135.88 150.481 136.324C150.924 136.769 151.173 137.372 151.173 138.001C151.173 138.629 150.924 139.232 150.481 139.677C150.037 140.121 149.436 140.371 148.809 140.371Z" fill="#E6E6E6"/>
<path d="M139.058 158.76H64.6354C64.0085 158.76 63.4072 158.51 62.9639 158.065C62.5205 157.621 62.2715 157.018 62.2715 156.389C62.2715 155.76 62.5205 155.157 62.9639 154.713C63.4072 154.268 64.0085 154.019 64.6354 154.019H139.058C139.685 154.019 140.286 154.268 140.729 154.713C141.173 155.157 141.422 155.76 141.422 156.389C141.422 157.018 141.173 157.621 140.729 158.065C140.286 158.51 139.685 158.76 139.058 158.76Z" fill="#E6E6E6"/>
<path d="M148.809 166.76H64.6354C64.0085 166.76 63.4072 166.51 62.9639 166.066C62.5205 165.621 62.2715 165.018 62.2715 164.389C62.2715 163.761 62.5205 163.158 62.9639 162.713C63.4072 162.269 64.0085 162.019 64.6354 162.019H148.809C149.436 162.02 150.036 162.27 150.479 162.714C150.922 163.159 151.17 163.761 151.17 164.389C151.17 165.018 150.922 165.62 150.479 166.064C150.036 166.509 149.436 166.759 148.809 166.76Z" fill="#E6E6E6"/>
<path d="M203.597 85.8605C203.694 84.9598 203.513 84.0509 203.077 83.2572C202.641 82.4636 201.972 81.8238 201.161 81.4248L119.776 41.5372C119.259 41.2833 118.696 41.1341 118.121 41.0981C117.546 41.0622 116.97 41.1401 116.425 41.3276C115.88 41.515 115.377 41.8082 114.945 42.1905C114.513 42.5729 114.16 43.0367 113.907 43.5557L113.906 43.5588L83.3812 106.186C82.8718 107.235 82.7979 108.443 83.1758 109.547C83.5537 110.65 84.3525 111.559 85.3972 112.072L166.782 151.96C167.828 152.471 169.033 152.545 170.134 152.166C171.234 151.787 172.14 150.986 172.652 149.938L203.177 87.3117C203.4 86.8561 203.542 86.365 203.597 85.8605Z" fill="white"/>
<path d="M203.597 85.8605C203.694 84.9598 203.513 84.0509 203.077 83.2572C202.641 82.4636 201.972 81.8238 201.161 81.4248L119.776 41.5372C119.259 41.2833 118.696 41.1341 118.121 41.0981C117.546 41.0622 116.97 41.1401 116.425 41.3276C115.88 41.515 115.377 41.8082 114.945 42.1905C114.513 42.5729 114.16 43.0367 113.907 43.5557L113.906 43.5588L83.3812 106.186C82.8718 107.235 82.7979 108.443 83.1758 109.547C83.5537 110.65 84.3525 111.559 85.3972 112.072L166.782 151.96C167.828 152.471 169.033 152.545 170.134 152.166C171.234 151.787 172.14 150.986 172.652 149.938L203.177 87.3117C203.4 86.8561 203.542 86.365 203.597 85.8605ZM172.188 149.711C171.736 150.636 170.937 151.343 169.966 151.677C168.995 152.011 167.932 151.946 167.009 151.495L85.6239 111.607C84.702 111.154 83.997 110.353 83.6636 109.379C83.3301 108.405 83.3954 107.339 83.8451 106.413L114.37 43.7862C114.822 42.8617 115.621 42.1548 116.592 41.8204C117.563 41.486 118.627 41.5514 119.55 42.0024L200.934 81.89C201.856 82.3432 202.561 83.1446 202.895 84.1184C203.228 85.0921 203.163 86.1587 202.713 87.0843L172.188 149.711Z" fill="#3F3D56"/>
<path d="M194.72 88.7081L173.406 132.438C173.264 132.73 173.012 132.954 172.706 133.059C172.399 133.165 172.063 133.144 171.772 133.002L97.742 96.7185C97.6891 96.6931 97.6384 96.6632 97.5906 96.6291C97.3478 96.4634 97.1727 96.2156 97.0975 95.9309C97.0222 95.6463 97.0517 95.344 97.1806 95.0795L118.495 51.3491C118.565 51.2045 118.663 51.0753 118.784 50.9687C118.904 50.8622 119.044 50.7805 119.196 50.7282C119.347 50.6759 119.508 50.654 119.668 50.6639C119.828 50.6738 119.985 50.7153 120.129 50.7859L194.159 87.069C194.45 87.2116 194.673 87.4643 194.778 87.7715C194.884 88.0788 194.863 88.4154 194.721 88.7073L194.72 88.7081Z" fill="#E6E6E6"/>
<path d="M129.727 86.4872C135.648 86.4872 140.448 81.6738 140.448 75.7363C140.448 69.7987 135.648 64.9854 129.727 64.9854C123.806 64.9854 119.006 69.7987 119.006 75.7363C119.006 81.6738 123.806 86.4872 129.727 86.4872Z" fill="#6C63FF"/>
<path d="M145.424 120.306L98.1717 97.1465C98.1121 97.1183 98.0553 97.0846 98.002 97.0459L139.27 69.1811C139.525 69.0062 139.821 68.9021 140.128 68.8795C140.436 68.8568 140.743 68.9164 141.02 69.0522C141.297 69.1879 141.534 69.395 141.705 69.6522C141.876 69.9094 141.976 70.2075 141.994 70.5161L144.296 103.917L144.407 105.516L145.424 120.306Z" fill="#3F3D56"/>
<path opacity="0.2" d="M145.424 120.306L129.291 112.399L142.833 104.744L143.808 104.193L144.296 103.917L144.407 105.516L145.424 120.306Z" fill="black"/>
<path d="M171.735 133.201L130.865 113.17L144.408 105.516L145.382 104.964L163.03 94.989C164.187 94.3354 165.844 95.0717 166.22 96.3224C166.245 96.4073 166.264 96.4937 166.278 96.5811L171.735 133.201Z" fill="#3F3D56"/>
<path d="M45.6319 137.018L50.0772 137.017L52.1923 119.823L45.6309 119.823L45.6319 137.018Z" fill="#FFB8B8"/>
<path d="M44.498 135.562L53.2528 135.562C53.9855 135.562 54.7114 135.706 55.3883 135.988C56.0652 136.269 56.6802 136.681 57.1983 137.2C57.7164 137.72 58.1274 138.337 58.4078 139.015C58.6881 139.694 58.8324 140.422 58.8324 141.156V141.338L44.4983 141.339L44.498 135.562Z" fill="#2F2E41"/>
<path d="M11.0781 134.179L15.684 135.082L21.3508 117.698L14.5534 116.365L11.0781 134.179Z" fill="#FFB8B8"/>
<path d="M10.1967 132.441L19.2672 134.22L19.2675 134.22C20.0266 134.369 20.749 134.666 21.3935 135.095C22.038 135.524 22.5919 136.076 23.0237 136.72C23.4554 137.363 23.7565 138.086 23.9098 138.846C24.0631 139.606 24.0655 140.389 23.917 141.15L23.8803 141.339L9.0293 138.426L10.1967 132.441Z" fill="#2F2E41"/>
<path d="M52.1002 77.7041C51.9497 77.1913 51.6889 76.7179 51.3362 76.3171C50.9834 75.9163 50.5474 75.5979 50.0587 75.3844C49.57 75.1709 49.0405 75.0674 48.5076 75.0813C47.9747 75.0952 47.4514 75.226 46.9744 75.4647L37.7082 66.3818L36.4297 73.0112L45.425 80.6201C45.8779 81.3971 46.5993 81.9805 47.4525 82.2597C48.3057 82.539 49.2314 82.4947 50.0542 82.1352C50.877 81.7758 51.5397 81.1262 51.9168 80.3095C52.2939 79.4928 52.3592 78.5658 52.1002 77.7041Z" fill="#FFB8B8"/>
<path d="M17.7205 30.9533C22.6392 30.9533 26.6266 26.9549 26.6266 22.0226C26.6266 17.0902 22.6392 13.0918 17.7205 13.0918C12.8018 13.0918 8.81445 17.0902 8.81445 22.0226C8.81445 26.9549 12.8018 30.9533 17.7205 30.9533Z" fill="#FFB8B8"/>
<path d="M15.8508 31.0903C16.324 31.2979 17.293 27.5169 16.8589 26.7607C16.2134 25.636 16.2515 25.6441 15.823 24.9001C15.3945 24.156 15.2986 23.1376 15.8535 22.4829C16.4085 21.8282 17.6927 21.915 17.9459 22.7359C17.783 21.1768 19.3209 19.9235 20.8443 19.5713C22.3676 19.2191 23.9745 19.4378 25.5062 19.1244C27.2839 18.7606 29.1335 17.2664 28.4242 15.3061C28.3025 14.9798 28.1203 14.6795 27.8872 14.4211C27.0677 13.4971 25.9214 13.1026 24.8006 12.7212C22.469 11.9276 20.0737 11.124 17.6129 11.2116C15.5855 11.318 13.6329 12.0146 11.9941 13.2164C10.3553 14.4182 9.10143 16.073 8.3859 17.9783C8.21632 18.4549 8.08495 18.9443 7.99304 19.4419C7.14844 23.9959 9.78566 28.4879 14.069 30.2221L15.8508 31.0903Z" fill="#2F2E41"/>
<path d="M13.6639 80.1506C13.4368 80.0128 13.2547 79.8115 13.1402 79.5714C13.0257 79.3313 12.9836 79.0629 13.0192 78.7991L9.00045 58.8361L4.92677 43.5152C4.47954 41.8365 4.6147 40.0551 5.3099 38.4634C6.00509 36.8717 7.21913 35.5642 8.75284 34.7554L11.4459 32.2002L17.3211 34.7384L20.1128 37.5848C22.1151 38.5625 23.8914 39.9495 25.3273 41.6566C26.7632 43.3637 27.827 45.3532 28.4503 47.4973L32.928 62.8618L43.2686 78.2888C43.4413 78.5459 43.522 78.854 43.4977 79.163C43.4734 79.472 43.3454 79.7637 43.1347 79.9904C41.6961 81.5422 13.6639 80.1506 13.6639 80.1506Z" fill="#2F2E41"/>
<path d="M40.756 78.7322L25.508 68.1366C23.4297 66.6825 21.9252 64.5442 21.2557 62.0933L16.9697 46.3999C16.8101 45.825 16.7671 45.2239 16.8432 44.632C16.9192 44.0402 17.1128 43.4696 17.4125 42.9541C17.8195 42.2422 18.4185 41.6599 19.1407 41.274C19.8629 40.8882 20.679 40.7144 21.4952 40.7728C22.3115 40.8311 23.0948 41.1191 23.7551 41.6038C24.4154 42.0885 24.926 42.7501 25.2282 43.5127L31.5846 59.1918L45.1281 72.0806C45.2805 72.2662 45.3819 72.4885 45.4222 72.7255C45.4625 72.9625 45.4403 73.206 45.3578 73.4318L42.7785 78.0558C42.689 78.3223 42.5185 78.5539 42.2909 78.7183C42.0634 78.8827 41.7903 78.9715 41.5099 78.9723C41.2399 78.9719 40.9767 78.8881 40.756 78.7322Z" fill="#2F2E41"/>
<path d="M9.07817 131.518C8.95351 131.339 8.87368 131.132 8.84544 130.916C8.8172 130.699 8.84136 130.479 8.9159 130.273L15.97 104.559L16.4914 79.3618L40.2373 77.7288L40.3526 77.7209L47.5047 90.7198C49.744 94.7839 51.1148 99.2711 51.5298 103.896L53.8868 129.796C53.9224 130.148 53.8189 130.5 53.5985 130.776C53.3781 131.052 53.0584 131.231 52.708 131.274L45.5481 131.956C45.2031 131.999 44.8554 131.904 44.5791 131.693C44.3028 131.481 44.1198 131.17 44.0691 130.825L41.1616 104.506L30.7005 86.7811L27.189 105.441L19.914 131.21C19.8189 131.468 19.648 131.69 19.424 131.847C19.2001 132.005 18.9336 132.09 18.66 132.092L10.1749 132.096C9.95888 132.097 9.7459 132.045 9.55467 131.944C9.36345 131.843 9.19982 131.697 9.07817 131.518Z" fill="#2F2E41"/>
<path d="M190.901 216.091H11.9661C8.7936 216.088 5.75205 214.822 3.50875 212.573C1.26545 210.323 0.00358366 207.273 0 204.092V105.552C0.00358366 102.371 1.26545 99.321 3.50875 97.0715C5.75205 94.8219 8.7936 93.5566 11.9661 93.553H33.9049C36.8817 93.5504 39.752 94.663 41.9531 96.6727L65.7444 113.708C67.2955 115.13 69.3212 115.917 71.4224 115.915H192.012C193.598 115.915 195.168 116.232 196.632 116.846C198.095 117.46 199.422 118.359 200.535 119.492C201.648 120.625 202.526 121.969 203.117 123.445C203.708 124.921 204 126.5 203.977 128.09L202.866 204.268C202.807 207.415 201.522 210.415 199.286 212.624C197.05 214.834 194.04 216.078 190.901 216.091Z" fill="white"/>
<path d="M189.311 210.274H13.0245C11.494 210.272 10.0268 209.661 8.9446 208.576C7.86241 207.491 7.25368 206.02 7.25195 204.485V104.334C7.25369 102.799 7.86242 101.328 8.9446 100.243C10.0268 99.1576 11.494 98.5472 13.0245 98.5454C14.3781 98.5469 15.6759 99.0868 16.6331 100.047C17.5903 101.007 18.1287 102.308 18.1302 103.665V197.576C18.1319 199.015 18.7024 200.393 19.7166 201.411C20.7308 202.428 22.1059 203 23.5402 203.001H188.716C189.536 202.992 190.336 203.259 190.988 203.759C191.639 204.259 192.105 204.964 192.311 205.76C192.541 206.516 192.513 207.327 192.23 208.064C191.947 208.801 191.425 209.422 190.749 209.827C190.32 210.107 189.822 210.262 189.311 210.274Z" fill="#F2F2F2"/>
<path d="M102.772 162.177L102.308 161.712C102.211 161.621 102.155 161.496 102.151 161.364C102.146 161.232 102.195 161.104 102.285 161.008C102.292 161 102.3 160.992 102.308 160.984L106.38 156.897C106.424 156.85 106.478 156.811 106.537 156.784C106.597 156.757 106.661 156.742 106.726 156.74C106.791 156.738 106.856 156.749 106.917 156.772C106.978 156.795 107.034 156.83 107.082 156.874C107.09 156.882 107.097 156.889 107.105 156.897L111.177 160.981C111.225 161.027 111.263 161.082 111.289 161.143C111.316 161.204 111.33 161.269 111.331 161.336C111.332 161.402 111.32 161.468 111.296 161.53C111.272 161.591 111.236 161.648 111.19 161.695L111.177 161.708L110.713 162.173C110.667 162.221 110.612 162.259 110.551 162.286C110.491 162.312 110.425 162.327 110.359 162.328C110.293 162.329 110.227 162.317 110.166 162.293C110.104 162.268 110.048 162.232 110 162.186L109.988 162.173L107.58 159.628V165.668C107.58 165.734 107.568 165.799 107.543 165.86C107.519 165.921 107.482 165.977 107.436 166.024C107.39 166.071 107.335 166.108 107.274 166.134C107.214 166.159 107.149 166.173 107.083 166.173L107.08 166.173H106.409C106.275 166.173 106.147 166.12 106.052 166.025C105.958 165.93 105.905 165.802 105.905 165.668V159.635L103.497 162.181C103.404 162.277 103.276 162.332 103.142 162.333C103.009 162.335 102.88 162.283 102.784 162.19L102.772 162.177Z" fill="#6C63FF"/>
<path d="M106.736 153.185C108.371 153.185 109.969 153.671 111.328 154.581C112.687 155.492 113.746 156.786 114.371 158.3C114.997 159.815 115.16 161.481 114.842 163.088C114.523 164.696 113.736 166.172 112.58 167.331C111.424 168.49 109.952 169.279 108.349 169.599C106.746 169.919 105.084 169.755 103.574 169.128C102.064 168.5 100.773 167.438 99.8653 166.076C98.9573 164.713 98.4726 163.111 98.4726 161.472C98.4745 159.274 99.3458 157.168 100.895 155.614C102.445 154.06 104.545 153.187 106.736 153.185ZM106.736 152.094C104.887 152.094 103.079 152.644 101.541 153.674C100.003 154.705 98.8044 156.169 98.0966 157.883C97.3888 159.597 97.2036 161.482 97.5645 163.301C97.9253 165.12 98.816 166.791 100.124 168.103C101.432 169.414 103.098 170.307 104.912 170.669C106.726 171.031 108.606 170.845 110.315 170.135C112.024 169.426 113.485 168.224 114.512 166.682C115.54 165.139 116.088 163.326 116.088 161.472C116.088 158.985 115.103 156.599 113.349 154.841C111.595 153.082 109.217 152.094 106.736 152.094Z" fill="#3F3D56"/>
<path d="M190.901 216.091H11.9661C8.7936 216.088 5.75205 214.822 3.50875 212.573C1.26545 210.323 0.00358366 207.273 0 204.092V105.552C0.00358366 102.371 1.26545 99.321 3.50875 97.0715C5.75205 94.8219 8.7936 93.5566 11.9661 93.553H33.9049C36.8817 93.5504 39.752 94.663 41.9531 96.6727L65.7444 113.708C67.2955 115.13 69.3212 115.917 71.4224 115.915H192.012C193.598 115.915 195.168 116.232 196.632 116.846C198.095 117.46 199.422 118.359 200.535 119.492C201.648 120.625 202.526 121.969 203.117 123.445C203.708 124.921 204 126.5 203.977 128.09L202.866 204.268C202.807 207.415 201.522 210.415 199.286 212.624C197.05 214.834 194.04 216.078 190.901 216.091ZM11.9661 94.2802C8.98587 94.2836 6.12868 95.4723 4.02134 97.5855C1.914 99.6987 0.728605 102.564 0.725218 105.552V204.092C0.728605 207.081 1.914 209.946 4.02134 212.059C6.12868 214.172 8.98587 215.361 11.9661 215.364H190.901C193.85 215.352 196.677 214.183 198.778 212.107C200.878 210.031 202.085 207.214 202.141 204.257L203.252 128.079C203.273 126.585 202.999 125.102 202.444 123.715C201.889 122.329 201.064 121.067 200.018 120.003C198.972 118.938 197.726 118.093 196.352 117.516C194.977 116.94 193.502 116.643 192.012 116.643H71.4224C69.1479 116.644 66.9545 115.795 65.2718 114.26L41.4805 97.2246C39.411 95.3283 36.7084 94.2778 33.9049 94.2802H11.9661Z" fill="#3F3D56"/>
<path d="M206.066 218.01H201.62L200.23 200.815L206.066 200.815L206.066 218.01Z" fill="#FFB8B8"/>
<path d="M207.199 222.331L192.865 222.331V222.149C192.865 221.414 193.01 220.687 193.29 220.008C193.57 219.329 193.981 218.712 194.499 218.193C195.017 217.673 195.632 217.261 196.309 216.98C196.986 216.699 197.712 216.554 198.445 216.554L207.2 216.555L207.199 222.331Z" fill="#2F2E41"/>
<path d="M255.742 218.01H251.296L249.182 200.815L255.743 200.815L255.742 218.01Z" fill="#FFB8B8"/>
<path d="M256.877 222.331L242.543 222.331V222.149C242.543 221.414 242.687 220.687 242.968 220.008C243.248 219.329 243.659 218.712 244.177 218.193C244.695 217.673 245.31 217.261 245.987 216.98C246.664 216.699 247.39 216.554 248.122 216.554L256.877 216.555L256.877 222.331Z" fill="#2F2E41"/>
<path d="M241.125 164.854C241.739 164.133 242.084 163.221 242.104 162.273C242.123 161.325 241.814 160.4 241.231 159.654C241.112 159.511 240.982 159.379 240.842 159.257L244.191 146.861L238.61 148.718L236.286 160.205C235.9 160.913 235.729 161.719 235.795 162.523C235.86 163.328 236.159 164.095 236.655 164.731C236.914 165.075 237.246 165.355 237.628 165.552C238.01 165.749 238.431 165.858 238.86 165.87C239.29 165.881 239.716 165.796 240.108 165.621C240.5 165.445 240.847 165.183 241.125 164.854Z" fill="#FFB8B8"/>
<path d="M240.911 157.229C240.841 157.229 240.771 157.224 240.702 157.213L237.794 156.773C237.568 156.734 237.353 156.646 237.164 156.515C236.975 156.384 236.817 156.213 236.702 156.014C236.45 155.591 236.359 155.091 236.447 154.606L240.075 134.287L237.614 121.232C237.14 118.72 238.364 116.183 240.461 115.33C241.083 115.075 241.761 114.986 242.428 115.072C243.095 115.157 243.728 115.415 244.266 115.819C244.846 116.26 245.328 116.818 245.679 117.458C246.03 118.097 246.243 118.804 246.304 119.531L248.046 136.176L248.025 136.248L242.42 155.974C242.339 156.32 242.148 156.629 241.876 156.856C241.603 157.082 241.265 157.213 240.911 157.229Z" fill="#6C63FF"/>
<path d="M240.053 108.136C244.971 108.136 248.959 104.138 248.959 99.2057C248.959 94.2733 244.971 90.2749 240.053 90.2749C235.134 90.2749 231.146 94.2733 231.146 99.2057C231.146 104.138 235.134 108.136 240.053 108.136Z" fill="#FFB8B8"/>
<path d="M235.492 140.72C235.27 140.72 235.05 140.679 234.843 140.599L220.766 135.169C220.385 135.023 220.065 134.753 219.857 134.401C219.648 134.049 219.565 133.637 219.62 133.232L220.185 128.98C219.85 127.473 219.881 125.907 220.275 124.414C220.67 122.921 221.416 121.546 222.452 120.402L222.794 120.024L226.959 112.409C227.241 111.893 227.622 111.438 228.081 111.071C228.539 110.703 229.065 110.43 229.629 110.268C230.193 110.105 230.784 110.056 231.367 110.124C231.95 110.191 232.514 110.374 233.026 110.661L240.38 114.782C241.348 115.324 242.079 116.209 242.429 117.264C243.419 120.25 243.345 123.488 242.221 126.425L237.186 139.554C237.053 139.897 236.82 140.191 236.518 140.399C236.216 140.606 235.858 140.718 235.492 140.72Z" fill="#6C63FF"/>
<path d="M198.601 213.788L198.582 213.784C198.342 213.738 198.114 213.643 197.911 213.506C197.708 213.369 197.535 213.192 197.402 212.987C197.27 212.781 197.18 212.55 197.138 212.309C197.096 212.067 197.104 211.82 197.16 211.581L207.947 164.297C209.713 156.801 212.153 149.481 215.236 142.426L219.825 131.934L236.95 139.773L239.395 144.258C241.302 149.252 242.282 154.554 242.287 159.901L259.688 211.037C259.773 211.287 259.802 211.552 259.775 211.814C259.747 212.077 259.663 212.33 259.528 212.557C259.394 212.783 259.211 212.977 258.994 213.126C258.776 213.275 258.53 213.374 258.27 213.418L248.745 213.31C248.655 213.326 248.564 213.334 248.472 213.333C248.111 213.333 247.758 213.225 247.46 213.021C247.161 212.818 246.93 212.529 246.797 212.193L226.906 160.492C226.878 160.423 226.829 160.365 226.767 160.325C226.704 160.284 226.631 160.264 226.557 160.267C226.485 160.268 226.414 160.291 226.356 160.334C226.297 160.377 226.253 160.437 226.23 160.505L207.357 212.464C207.212 212.868 206.929 213.207 206.558 213.421C206.186 213.635 205.752 213.709 205.331 213.631L198.601 213.788Z" fill="#2F2E41"/>
<path d="M211.624 155.64C212.126 155.461 212.583 155.174 212.963 154.798C213.342 154.423 213.635 153.969 213.821 153.467C214.006 152.966 214.08 152.43 214.036 151.898C213.993 151.365 213.834 150.848 213.57 150.384L222.099 140.602L215.427 139.69L208.35 149.118C207.602 149.615 207.061 150.37 206.83 151.239C206.6 152.109 206.695 153.034 207.099 153.837C207.502 154.641 208.186 155.269 209.02 155.601C209.854 155.933 210.78 155.947 211.624 155.64Z" fill="#FFB8B8"/>
<path d="M215.645 148.749C215.348 148.749 215.056 148.676 214.793 148.536L211.792 146.931C211.572 146.813 211.378 146.651 211.223 146.455C211.068 146.258 210.955 146.032 210.892 145.79C210.828 145.548 210.815 145.295 210.853 145.048C210.892 144.801 210.981 144.564 211.114 144.352L222.201 126.834L224.123 113.615C224.223 112.931 224.459 112.275 224.819 111.687C225.178 111.098 225.653 110.588 226.215 110.189C226.777 109.789 227.413 109.508 228.086 109.363C228.76 109.217 229.455 109.21 230.131 109.342C230.807 109.474 231.449 109.742 232.019 110.13C232.588 110.518 233.073 111.018 233.445 111.6C233.816 112.181 234.066 112.832 234.179 113.513C234.292 114.194 234.266 114.891 234.103 115.562L230.134 131.856L217.057 148.075C216.887 148.286 216.672 148.457 216.427 148.573C216.183 148.69 215.915 148.75 215.645 148.749Z" fill="#6C63FF"/>
<path d="M232.035 91.837C233.066 88.4494 239.017 86.9381 243.964 88.3436C248.912 89.7491 252.465 93.4343 253.293 97.0372C255.125 105.016 245.569 111.491 247.301 119.471C248.446 124.75 255.074 129.741 262.538 130.947C254.312 132.673 244.272 131.156 236.644 127.035C231.896 124.47 227.913 120.599 227.973 116.695C228.01 114.331 229.509 112.241 231.343 110.435C233.177 108.629 235.372 107.024 237.055 105.139C238.738 103.254 239.904 100.997 239.413 98.6042C238.922 96.2114 236.427 93.716 233.069 93.0198L232.035 91.837Z" fill="#2F2E41"/>
<path d="M281.638 223H143.484C143.388 223 143.295 222.962 143.227 222.893C143.159 222.825 143.121 222.733 143.121 222.636C143.121 222.54 143.159 222.447 143.227 222.379C143.295 222.311 143.388 222.273 143.484 222.273H281.638C281.734 222.273 281.826 222.311 281.894 222.379C281.962 222.447 282 222.54 282 222.636C282 222.733 281.962 222.825 281.894 222.893C281.826 222.962 281.734 223 281.638 223Z" fill="#CCCCCC"/>
</g>
<defs>
<clipPath id="clip0_100_11100">
<rect width="282" height="223" fill="white"/>
</clipPath>
</defs>
</svg>
