<svg width="270" height="210" viewBox="0 0 270 210" fill="none" xmlns="http://www.w3.org/2000/svg">
<g clip-path="url(#clip0_103_11265)">
<path d="M224.523 90.5652C224.523 90.5652 218.175 94.0859 220.002 98.0945C221.829 102.103 247.776 98.8233 247.776 98.8233C247.776 98.8233 245.949 93.3571 242.66 92.2639C239.371 91.1706 224.523 90.5652 224.523 90.5652Z" fill="#6C63FF"/>
<path d="M222.049 91.504C223.325 90.6771 224.743 90.0923 226.232 89.7792C231.198 88.5789 236.398 88.7406 241.28 90.2472L241.191 90.1747C243.27 91.2694 245.096 92.7876 246.55 94.6308L222.049 91.504Z" fill="#CCCCCC"/>
<path d="M250.159 108.743C250.071 110.051 249.983 111.358 249.896 112.664C249.775 115.399 249.476 118.123 249 120.819C248.554 123.075 247.845 125.313 246.577 127.233C245.309 129.15 243.427 130.735 241.198 131.318C239.829 131.645 238.406 131.676 237.024 131.409C234.419 129.933 232.654 131.821 235.256 133.741C235.846 134.177 236.46 134.579 237.094 134.948L238.274 153.121L216.347 148.384L220.627 124.208C219.971 123.615 219.372 122.962 218.836 122.259C216.384 119.012 215.54 114.781 215.701 110.721C215.865 106.658 216.95 102.697 218.029 98.7797C218.303 97.7169 218.635 96.6695 219.023 95.6421C219.501 95.8389 219.987 96.0174 220.481 96.1668C223.635 97.1216 226.986 97.1981 230.282 97.1945C236.147 97.1908 242.006 96.9625 247.856 96.5094C249.201 98.7166 250.017 101.203 250.243 103.776C250.337 105.431 250.309 107.091 250.159 108.743Z" fill="#CCCCCC"/>
<path d="M156.379 158.075L190.135 161.063L190.497 161.096V17.4664C190.377 17.3826 190.256 17.2987 190.135 17.2149C183.1 12.308 175.49 8.27687 167.474 5.21118L165.749 28.9344L165.592 31.1063L163.885 54.6328L163.359 61.87L156.441 157.237L156.379 158.075Z" fill="#E6E6E6"/>
<path d="M72.8994 14.7915C72.6582 14.9446 72.417 15.0976 72.1758 15.258V161.096L72.8994 161.03L106.29 158.075L106.228 157.237L99.3103 61.87L98.784 54.6327L97.0774 31.1063L96.9202 28.9344L95.1113 4.05591C87.3103 6.75233 79.8549 10.3557 72.8994 14.7915Z" fill="#E6E6E6"/>
<path d="M72.1754 15.258C71.6894 15.5713 71.2033 15.892 70.7246 16.2164V163.086C70.7246 166.755 72.9063 169.831 75.8226 170.614C76.2991 170.743 76.7907 170.808 77.2844 170.807H185.749C186.242 170.808 186.732 170.743 187.207 170.614C188.291 170.314 189.274 169.728 190.051 168.916C191.532 167.337 192.341 165.247 192.309 163.086V18.7709C191.71 18.3299 191.107 17.8927 190.496 17.4663C190.376 17.3825 190.255 17.2987 190.135 17.2148V163.086C190.135 163.558 190.079 164.029 189.966 164.488C189.451 166.657 187.752 168.246 185.749 168.246H77.2844C74.8651 168.246 72.899 165.932 72.899 163.086V14.7915C72.6578 14.9446 72.4166 15.0976 72.1754 15.258Z" fill="#E6E6E6"/>
<path d="M191.221 28.9358H71.8105V31.1073H191.221V28.9358Z" fill="#E6E6E6"/>
<path d="M154.651 1.23531C153.927 1.05675 153.204 0.889119 152.473 0.732422V59.698H154.651V1.23531Z" fill="#E6E6E6"/>
<path d="M110.563 0C109.836 0.134833 109.108 0.273305 108.385 0.422714V59.6981H110.563V0Z" fill="#E6E6E6"/>
<path d="M48.4004 167.007C48.3999 168.253 48.6393 169.487 49.1057 170.644C49.2848 171.092 49.4987 171.526 49.7452 171.941C50.0637 172.482 50.4333 172.993 50.8489 173.464C51.767 174.507 52.8978 175.343 54.1658 175.916C55.4338 176.488 56.8098 176.784 58.2017 176.784H201.205C203.804 176.784 206.297 175.754 208.136 173.921C209.974 172.088 211.006 169.602 211.006 167.01C211.006 164.418 209.974 161.932 208.136 160.099C206.297 158.267 203.804 157.237 201.205 157.237H58.2017C55.6036 157.239 53.1127 158.269 51.2752 160.101C49.4378 161.933 48.4039 164.416 48.4004 167.007Z" fill="#E6E6E6"/>
<path d="M71.8112 61.8708L190.496 61.8708V54.6324L71.8112 54.6324V61.8708Z" fill="#E6E6E6"/>
<path d="M136.234 56.4419H126.072C126.072 55.9191 126.175 55.4014 126.376 54.9184C126.576 54.4354 126.87 53.9965 127.241 53.6268C127.612 53.2571 128.052 52.9639 128.536 52.7638C129.021 52.5637 129.54 52.4607 130.064 52.4607H132.242C133.301 52.4607 134.316 52.8802 135.065 53.6268C135.814 54.3734 136.234 55.386 136.234 56.4419Z" fill="#E6E6E6"/>
<path d="M0 172.589C3.17474 176.34 6.60857 179.866 10.2764 183.139H259.724C263.391 179.866 266.825 176.34 270 172.589H0Z" fill="#3F3D56"/>
<path d="M67.666 137.311V174.685H93.9234V137.311C93.9239 137.042 93.8379 136.78 93.678 136.564C93.5182 136.347 93.2929 136.188 93.0354 136.108C92.914 136.068 92.7868 136.048 92.659 136.05H68.9341C68.7678 136.05 68.6031 136.082 68.4493 136.145C68.2955 136.208 68.1558 136.301 68.038 136.418C67.9202 136.535 67.8268 136.674 67.7629 136.828C67.6991 136.981 67.6662 137.145 67.666 137.311ZM77.9132 150.153C77.92 149.416 78.2184 148.712 78.7433 148.193C79.2682 147.674 79.9772 147.383 80.7161 147.383C81.4551 147.383 82.1641 147.674 82.689 148.193C83.2139 148.712 83.5123 149.416 83.5191 150.153V154.489C83.5154 155.228 83.2184 155.935 82.6931 156.456C82.1679 156.977 81.4571 157.27 80.7161 157.27C79.9752 157.27 79.2644 156.977 78.7392 156.456C78.2139 155.935 77.917 155.228 77.9132 154.489V150.153Z" fill="#2F2E41"/>
<path d="M67.5859 173.49V177.094C67.5865 177.28 67.6609 177.459 67.793 177.592C67.925 177.724 68.104 177.799 68.2912 177.801H93.2988C93.4862 177.8 93.6656 177.725 93.7978 177.592C93.93 177.46 94.0042 177.28 94.0042 177.094V173.49H67.5859Z" fill="#3F3D56"/>
<path d="M26.3594 81.0017V149.242C26.3601 150.111 26.7068 150.945 27.3235 151.56C27.9401 152.175 28.7763 152.521 29.6484 152.521H131.06C131.932 152.521 132.768 152.175 133.385 151.56C134.002 150.945 134.348 150.111 134.349 149.242V81.0017C134.347 80.1328 134 79.3002 133.383 78.6861C132.767 78.0721 131.931 77.7267 131.06 77.7256H29.6484C28.7771 77.7267 27.9417 78.0721 27.3252 78.6861C26.7088 79.3002 26.3615 80.1328 26.3594 81.0017Z" fill="#3F3D56"/>
<path d="M28.7383 81.8507V148.4C28.7391 148.864 28.9245 149.31 29.254 149.638C29.5835 149.967 30.0301 150.152 30.4961 150.153H130.216C130.682 150.152 131.128 149.967 131.458 149.638C131.787 149.31 131.973 148.864 131.974 148.4V81.8507C131.974 81.3855 131.788 80.9393 131.459 80.61C131.129 80.2807 130.682 80.0952 130.216 80.0942H30.4961C30.0296 80.0953 29.5825 80.2808 29.253 80.61C28.9234 80.9393 28.7383 81.3855 28.7383 81.8507Z" fill="#6C63FF"/>
<path d="M49.0716 178.65C49.1731 178.777 49.3021 178.879 49.449 178.949C49.5958 179.019 49.7567 179.055 49.9195 179.054H109.246C109.408 179.054 109.569 179.018 109.715 178.948C109.862 178.878 109.991 178.777 110.093 178.651C110.195 178.526 110.268 178.379 110.306 178.222C110.344 178.064 110.347 177.901 110.313 177.742L109.392 173.38C109.354 173.202 109.272 173.037 109.153 172.899C109.035 172.761 108.883 172.654 108.713 172.589C108.589 172.541 108.458 172.516 108.325 172.517H50.8367C50.7042 172.516 50.5728 172.541 50.4494 172.589C50.2789 172.654 50.1274 172.761 50.0087 172.899C49.89 173.037 49.8078 173.202 49.7696 173.38L48.8487 177.742C48.8159 177.901 48.8189 178.064 48.8575 178.221C48.8961 178.378 48.9692 178.524 49.0716 178.65Z" fill="#2F2E41"/>
<path d="M106.255 174.395H107.726C107.824 174.395 107.904 174.316 107.904 174.217V173.48C107.904 173.382 107.824 173.302 107.726 173.302H106.255C106.157 173.302 106.077 173.382 106.077 173.48V174.217C106.077 174.316 106.157 174.395 106.255 174.395Z" fill="#3F3D56"/>
<path d="M102.601 174.395H104.072C104.17 174.395 104.25 174.316 104.25 174.217V173.48C104.25 173.382 104.17 173.302 104.072 173.302H102.601C102.503 173.302 102.423 173.382 102.423 173.48V174.217C102.423 174.316 102.503 174.395 102.601 174.395Z" fill="#3F3D56"/>
<path d="M98.9469 174.395H100.417C100.516 174.395 100.596 174.316 100.596 174.217V173.48C100.596 173.382 100.516 173.302 100.417 173.302H98.9469C98.8483 173.302 98.7685 173.382 98.7685 173.48V174.217C98.7685 174.316 98.8483 174.395 98.9469 174.395Z" fill="#3F3D56"/>
<path d="M95.2926 174.395H96.763C96.8615 174.395 96.9414 174.316 96.9414 174.217V173.48C96.9414 173.382 96.8615 173.302 96.763 173.302H95.2926C95.194 173.302 95.1142 173.382 95.1142 173.48V174.217C95.1142 174.316 95.194 174.395 95.2926 174.395Z" fill="#3F3D56"/>
<path d="M91.6383 174.395H93.1087C93.2072 174.395 93.2871 174.316 93.2871 174.217V173.48C93.2871 173.382 93.2072 173.302 93.1087 173.302H91.6383C91.5397 173.302 91.4599 173.382 91.4599 173.48V174.217C91.4599 174.316 91.5397 174.395 91.6383 174.395Z" fill="#3F3D56"/>
<path d="M87.984 174.395H89.4544C89.5529 174.395 89.6328 174.316 89.6328 174.217V173.48C89.6328 173.382 89.5529 173.302 89.4544 173.302H87.984C87.8855 173.302 87.8056 173.382 87.8056 173.48V174.217C87.8056 174.316 87.8855 174.395 87.984 174.395Z" fill="#3F3D56"/>
<path d="M84.3297 174.395H85.8001C85.8986 174.395 85.9785 174.316 85.9785 174.217V173.48C85.9785 173.382 85.8986 173.302 85.8001 173.302H84.3297C84.2312 173.302 84.1513 173.382 84.1513 173.48V174.217C84.1513 174.316 84.2312 174.395 84.3297 174.395Z" fill="#3F3D56"/>
<path d="M80.6754 174.395H82.1458C82.2443 174.395 82.3242 174.316 82.3242 174.217V173.48C82.3242 173.382 82.2443 173.302 82.1458 173.302H80.6754C80.5769 173.302 80.497 173.382 80.497 173.48V174.217C80.497 174.316 80.5769 174.395 80.6754 174.395Z" fill="#3F3D56"/>
<path d="M77.0191 174.395H78.4896C78.5881 174.395 78.668 174.316 78.668 174.217V173.48C78.668 173.382 78.5881 173.302 78.4896 173.302H77.0191C76.9206 173.302 76.8407 173.382 76.8407 173.48V174.217C76.8407 174.316 76.9206 174.395 77.0191 174.395Z" fill="#3F3D56"/>
<path d="M73.3648 174.395H74.8353C74.9338 174.395 75.0137 174.316 75.0137 174.217V173.48C75.0137 173.382 74.9338 173.302 74.8353 173.302H73.3648C73.2663 173.302 73.1864 173.382 73.1864 173.48V174.217C73.1864 174.316 73.2663 174.395 73.3648 174.395Z" fill="#3F3D56"/>
<path d="M69.7105 174.395H71.181C71.2795 174.395 71.3594 174.316 71.3594 174.217V173.48C71.3594 173.382 71.2795 173.302 71.181 173.302H69.7105C69.612 173.302 69.5321 173.382 69.5321 173.48V174.217C69.5321 174.316 69.612 174.395 69.7105 174.395Z" fill="#3F3D56"/>
<path d="M66.0562 174.395H67.5267C67.6252 174.395 67.7051 174.316 67.7051 174.217V173.48C67.7051 173.382 67.6252 173.302 67.5267 173.302H66.0562C65.9577 173.302 65.8778 173.382 65.8778 173.48V174.217C65.8778 174.316 65.9577 174.395 66.0562 174.395Z" fill="#3F3D56"/>
<path d="M62.402 174.395H63.8724C63.9709 174.395 64.0508 174.316 64.0508 174.217V173.48C64.0508 173.382 63.9709 173.302 63.8724 173.302H62.402C62.3034 173.302 62.2235 173.382 62.2235 173.48V174.217C62.2235 174.316 62.3034 174.395 62.402 174.395Z" fill="#3F3D56"/>
<path d="M58.7477 174.395H60.2181C60.3166 174.395 60.3965 174.316 60.3965 174.217V173.48C60.3965 173.382 60.3166 173.302 60.2181 173.302H58.7477C58.6491 173.302 58.5692 173.382 58.5692 173.48V174.217C58.5692 174.316 58.6491 174.395 58.7477 174.395Z" fill="#3F3D56"/>
<path d="M55.0934 174.395H56.5638C56.6623 174.395 56.7422 174.316 56.7422 174.217V173.48C56.7422 173.382 56.6623 173.302 56.5638 173.302H55.0934C54.9948 173.302 54.9149 173.382 54.9149 173.48V174.217C54.9149 174.316 54.9948 174.395 55.0934 174.395Z" fill="#3F3D56"/>
<path d="M51.4391 174.395H52.9095C53.008 174.395 53.0879 174.316 53.0879 174.217V173.48C53.0879 173.382 53.008 173.302 52.9095 173.302H51.4391C51.3405 173.302 51.2607 173.382 51.2607 173.48V174.217C51.2607 174.316 51.3405 174.395 51.4391 174.395Z" fill="#3F3D56"/>
<path d="M106.298 176.217H107.769C107.867 176.217 107.947 176.138 107.947 176.039V175.302C107.947 175.204 107.867 175.124 107.769 175.124H106.298C106.2 175.124 106.12 175.204 106.12 175.302V176.039C106.12 176.138 106.2 176.217 106.298 176.217Z" fill="#3F3D56"/>
<path d="M102.644 176.217H104.115C104.213 176.217 104.293 176.138 104.293 176.039V175.302C104.293 175.204 104.213 175.124 104.115 175.124H102.644C102.546 175.124 102.466 175.204 102.466 175.302V176.039C102.466 176.138 102.546 176.217 102.644 176.217Z" fill="#3F3D56"/>
<path d="M98.9898 176.217H100.46C100.559 176.217 100.639 176.138 100.639 176.039V175.302C100.639 175.204 100.559 175.124 100.46 175.124H98.9898C98.8913 175.124 98.8114 175.204 98.8114 175.302V176.039C98.8114 176.138 98.8913 176.217 98.9898 176.217Z" fill="#3F3D56"/>
<path d="M95.3355 176.217H96.806C96.9045 176.217 96.9844 176.138 96.9844 176.039V175.302C96.9844 175.204 96.9045 175.124 96.806 175.124H95.3355C95.237 175.124 95.1571 175.204 95.1571 175.302V176.039C95.1571 176.138 95.237 176.217 95.3355 176.217Z" fill="#3F3D56"/>
<path d="M91.6812 176.217H93.1517C93.2502 176.217 93.3301 176.138 93.3301 176.039V175.302C93.3301 175.204 93.2502 175.124 93.1517 175.124H91.6812C91.5827 175.124 91.5028 175.204 91.5028 175.302V176.039C91.5028 176.138 91.5827 176.217 91.6812 176.217Z" fill="#3F3D56"/>
<path d="M88.027 176.217H89.4974C89.5959 176.217 89.6758 176.138 89.6758 176.039V175.302C89.6758 175.204 89.5959 175.124 89.4974 175.124H88.027C87.9284 175.124 87.8485 175.204 87.8485 175.302V176.039C87.8485 176.138 87.9284 176.217 88.027 176.217Z" fill="#3F3D56"/>
<path d="M84.3727 176.217H85.8431C85.9416 176.217 86.0215 176.138 86.0215 176.039V175.302C86.0215 175.204 85.9416 175.124 85.8431 175.124H84.3727C84.2741 175.124 84.1942 175.204 84.1942 175.302V176.039C84.1942 176.138 84.2741 176.217 84.3727 176.217Z" fill="#3F3D56"/>
<path d="M80.7184 176.217H82.1888C82.2873 176.217 82.3672 176.138 82.3672 176.039V175.302C82.3672 175.204 82.2873 175.124 82.1888 175.124H80.7184C80.6198 175.124 80.5399 175.204 80.5399 175.302V176.039C80.5399 176.138 80.6198 176.217 80.7184 176.217Z" fill="#3F3D56"/>
<path d="M77.0641 176.217H78.5345C78.633 176.217 78.7129 176.138 78.7129 176.039V175.302C78.7129 175.204 78.633 175.124 78.5345 175.124H77.0641C76.9655 175.124 76.8857 175.204 76.8857 175.302V176.039C76.8857 176.138 76.9655 176.217 77.0641 176.217Z" fill="#3F3D56"/>
<path d="M73.4078 176.217H74.8782C74.9768 176.217 75.0566 176.138 75.0566 176.039V175.302C75.0566 175.204 74.9768 175.124 74.8782 175.124H73.4078C73.3093 175.124 73.2294 175.204 73.2294 175.302V176.039C73.2294 176.138 73.3093 176.217 73.4078 176.217Z" fill="#3F3D56"/>
<path d="M69.7535 176.217H71.2239C71.3225 176.217 71.4023 176.138 71.4023 176.039V175.302C71.4023 175.204 71.3225 175.124 71.2239 175.124H69.7535C69.655 175.124 69.5751 175.204 69.5751 175.302V176.039C69.5751 176.138 69.655 176.217 69.7535 176.217Z" fill="#3F3D56"/>
<path d="M66.0992 176.217H67.5696C67.6682 176.217 67.748 176.138 67.748 176.039V175.302C67.748 175.204 67.6682 175.124 67.5696 175.124H66.0992C66.0007 175.124 65.9208 175.204 65.9208 175.302V176.039C65.9208 176.138 66.0007 176.217 66.0992 176.217Z" fill="#3F3D56"/>
<path d="M62.4449 176.217H63.9153C64.0139 176.217 64.0938 176.138 64.0938 176.039V175.302C64.0938 175.204 64.0139 175.124 63.9153 175.124H62.4449C62.3464 175.124 62.2665 175.204 62.2665 175.302V176.039C62.2665 176.138 62.3464 176.217 62.4449 176.217Z" fill="#3F3D56"/>
<path d="M58.7906 176.217H60.261C60.3596 176.217 60.4395 176.138 60.4395 176.039V175.302C60.4395 175.204 60.3596 175.124 60.261 175.124H58.7906C58.6921 175.124 58.6122 175.204 58.6122 175.302V176.039C58.6122 176.138 58.6921 176.217 58.7906 176.217Z" fill="#3F3D56"/>
<path d="M55.1363 176.217H56.6067C56.7053 176.217 56.7852 176.138 56.7852 176.039V175.302C56.7852 175.204 56.7053 175.124 56.6067 175.124H55.1363C55.0378 175.124 54.9579 175.204 54.9579 175.302V176.039C54.9579 176.138 55.0378 176.217 55.1363 176.217Z" fill="#3F3D56"/>
<path d="M51.482 176.217H52.9525C53.051 176.217 53.1309 176.138 53.1309 176.039V175.302C53.1309 175.204 53.051 175.124 52.9525 175.124H51.482C51.3835 175.124 51.3036 175.204 51.3036 175.302V176.039C51.3036 176.138 51.3835 176.217 51.482 176.217Z" fill="#3F3D56"/>
<path d="M75.9668 178.404H90.2278C90.3264 178.404 90.4062 178.324 90.4062 178.226V177.488C90.4062 177.39 90.3264 177.311 90.2278 177.311H75.9668C75.8682 177.311 75.7883 177.39 75.7883 177.488V178.226C75.7883 178.324 75.8682 178.404 75.9668 178.404Z" fill="#3F3D56"/>
<path d="M35.5075 89.2617H128.815C128.912 89.2596 129.004 89.2197 129.072 89.1505C129.14 89.0814 129.178 88.9885 129.178 88.8917C129.178 88.795 129.14 88.7021 129.072 88.6329C129.004 88.5638 128.912 88.5239 128.815 88.5217H35.5075C35.4105 88.5239 35.3182 88.5638 35.2504 88.6329C35.1825 88.7021 35.1445 88.795 35.1445 88.8917C35.1445 88.9885 35.1825 89.0814 35.2504 89.1505C35.3182 89.2197 35.4105 89.2596 35.5075 89.2617Z" fill="#3F3D56"/>
<path d="M122.464 86.6324C123.665 86.6324 124.638 85.64 124.638 84.4157C124.638 83.1914 123.665 82.199 122.464 82.199C121.263 82.199 120.289 83.1914 120.289 84.4157C120.289 85.64 121.263 86.6324 122.464 86.6324Z" fill="#3F3D56"/>
<path d="M114.952 86.6324C116.153 86.6324 117.126 85.64 117.126 84.4157C117.126 83.1914 116.153 82.199 114.952 82.199C113.751 82.199 112.777 83.1914 112.777 84.4157C112.777 85.64 113.751 86.6324 114.952 86.6324Z" fill="#3F3D56"/>
<path d="M107.438 86.6324C108.639 86.6324 109.613 85.64 109.613 84.4157C109.613 83.1914 108.639 82.199 107.438 82.199C106.237 82.199 105.264 83.1914 105.264 84.4157C105.264 85.64 106.237 86.6324 107.438 86.6324Z" fill="#3F3D56"/>
<path d="M39.6328 83.1516C39.6326 83.204 39.6427 83.2559 39.6626 83.3044C39.6824 83.3529 39.7117 83.3971 39.7487 83.4343C39.7857 83.4715 39.8297 83.5011 39.8781 83.5214C39.9266 83.5416 39.9786 83.5522 40.0312 83.5524H45.3667C45.4722 83.55 45.5725 83.5065 45.6462 83.4312C45.7199 83.356 45.7612 83.255 45.7612 83.1498C45.7612 83.0445 45.7199 82.9435 45.6462 82.8683C45.5725 82.793 45.4722 82.7495 45.3667 82.7471H40.0312C39.9246 82.7484 39.823 82.7916 39.7483 82.8674C39.6737 82.9432 39.6322 83.0454 39.6328 83.1516Z" fill="#3F3D56"/>
<path d="M39.6328 84.664C39.6326 84.7164 39.6427 84.7684 39.6626 84.8169C39.6824 84.8654 39.7117 84.9095 39.7487 84.9467C39.7857 84.984 39.8297 85.0136 39.8781 85.0338C39.9266 85.0541 39.9786 85.0647 40.0312 85.0649H45.3667C45.4722 85.0626 45.5727 85.0191 45.6465 84.9438C45.7203 84.8686 45.7617 84.7675 45.7617 84.6622C45.7617 84.5569 45.7203 84.4558 45.6465 84.3806C45.5727 84.3053 45.4722 84.2618 45.3667 84.2595H40.0312C39.9246 84.2608 39.823 84.3041 39.7483 84.3799C39.6737 84.4556 39.6322 84.5578 39.6328 84.664Z" fill="#3F3D56"/>
<path d="M39.6328 86.1726C39.6322 86.2788 39.6737 86.381 39.7483 86.4567C39.823 86.5325 39.9246 86.5758 40.0312 86.5771H45.3667C45.4722 86.5746 45.5725 86.5311 45.6462 86.4559C45.7199 86.3806 45.7612 86.2796 45.7612 86.1744C45.7612 86.0692 45.7199 85.9682 45.6462 85.8929C45.5725 85.8177 45.4722 85.7742 45.3667 85.7717H40.0312C39.9786 85.772 39.9266 85.7825 39.8781 85.8028C39.8297 85.823 39.7857 85.8526 39.7487 85.8899C39.7117 85.9271 39.6824 85.9712 39.6626 86.0197C39.6427 86.0682 39.6326 86.1202 39.6328 86.1726Z" fill="#3F3D56"/>
<path d="M41.2822 97.8606H39.365C38.7837 97.8606 38.3125 98.3305 38.3125 98.9101C38.3125 99.4897 38.7837 99.9596 39.365 99.9596H41.2822C41.8634 99.9596 42.3346 99.4897 42.3346 98.9101C42.3346 98.3305 41.8634 97.8606 41.2822 97.8606Z" fill="#E6E6E6"/>
<path d="M63.208 97.8606H61.2908C60.7095 97.8606 60.2383 98.3305 60.2383 98.9101C60.2383 99.4897 60.7095 99.9596 61.2908 99.9596H63.208C63.7892 99.9596 64.2604 99.4897 64.2604 98.9101C64.2604 98.3305 63.7892 97.8606 63.208 97.8606Z" fill="#E6E6E6"/>
<path d="M69.4209 97.8606H67.5037C66.9224 97.8606 66.4512 98.3305 66.4512 98.9101C66.4512 99.4897 66.9224 99.9596 67.5037 99.9596H69.4209C70.0021 99.9596 70.4733 99.4897 70.4733 98.9101C70.4733 98.3305 70.0021 97.8606 69.4209 97.8606Z" fill="#E6E6E6"/>
<path d="M57.2436 97.6855H45.3279C44.7466 97.6855 44.2754 98.1554 44.2754 98.735C44.2754 99.3147 44.7466 99.7845 45.3279 99.7845H57.2436C57.8248 99.7845 58.296 99.3147 58.296 98.735C58.296 98.1554 57.8248 97.6855 57.2436 97.6855Z" fill="#E6E6E6"/>
<path d="M86.4799 97.6855H74.5642C73.9829 97.6855 73.5117 98.1554 73.5117 98.735C73.5117 99.3147 73.9829 99.7845 74.5642 99.7845H86.4799C87.0612 99.7845 87.5324 99.3147 87.5324 98.735C87.5324 98.1554 87.0612 97.6855 86.4799 97.6855Z" fill="#E6E6E6"/>
<path d="M47.1298 102.598H45.2126C44.6314 102.598 44.1602 103.068 44.1602 103.647C44.1602 104.227 44.6314 104.697 45.2126 104.697H47.1298C47.7111 104.697 48.1823 104.227 48.1823 103.647C48.1823 103.068 47.7111 102.598 47.1298 102.598Z" fill="#E6E6E6"/>
<path d="M69.0556 102.598H67.1384C66.5572 102.598 66.0859 103.068 66.0859 103.647C66.0859 104.227 66.5572 104.697 67.1384 104.697H69.0556C69.6369 104.697 70.1081 104.227 70.1081 103.647C70.1081 103.068 69.6369 102.598 69.0556 102.598Z" fill="#E6E6E6"/>
<path d="M75.2685 102.598H73.3513C72.77 102.598 72.2988 103.068 72.2988 103.647C72.2988 104.227 72.77 104.697 73.3513 104.697H75.2685C75.8498 104.697 76.321 104.227 76.321 103.647C76.321 103.068 75.8498 102.598 75.2685 102.598Z" fill="#E6E6E6"/>
<path d="M63.0912 102.423H51.1755C50.5943 102.423 50.123 102.893 50.123 103.472C50.123 104.052 50.5943 104.522 51.1755 104.522H63.0912C63.6725 104.522 64.1437 104.052 64.1437 103.472C64.1437 102.893 63.6725 102.423 63.0912 102.423Z" fill="#E6E6E6"/>
<path d="M92.3276 102.423H80.4119C79.8306 102.423 79.3594 102.893 79.3594 103.472C79.3594 104.052 79.8306 104.522 80.4119 104.522H92.3276C92.9088 104.522 93.38 104.052 93.38 103.472C93.38 102.893 92.9088 102.423 92.3276 102.423Z" fill="#E6E6E6"/>
<path d="M52.9755 107.335H51.0583C50.4771 107.335 50.0059 107.805 50.0059 108.385C50.0059 108.964 50.4771 109.434 51.0583 109.434H52.9755C53.5568 109.434 54.028 108.964 54.028 108.385C54.028 107.805 53.5568 107.335 52.9755 107.335Z" fill="#E6E6E6"/>
<path d="M74.9033 107.335H72.9861C72.4048 107.335 71.9336 107.805 71.9336 108.385C71.9336 108.964 72.4048 109.434 72.9861 109.434H74.9033C75.4845 109.434 75.9557 108.964 75.9557 108.385C75.9557 107.805 75.4845 107.335 74.9033 107.335Z" fill="#E6E6E6"/>
<path d="M81.1162 107.335H79.199C78.6177 107.335 78.1465 107.805 78.1465 108.385C78.1465 108.964 78.6177 109.434 79.199 109.434H81.1162C81.6974 109.434 82.1686 108.964 82.1686 108.385C82.1686 107.805 81.6974 107.335 81.1162 107.335Z" fill="#E6E6E6"/>
<path d="M68.9389 107.16H57.0232C56.4419 107.16 55.9707 107.63 55.9707 108.21C55.9707 108.79 56.4419 109.259 57.0232 109.259H68.9389C69.5202 109.259 69.9914 108.79 69.9914 108.21C69.9914 107.63 69.5202 107.16 68.9389 107.16Z" fill="#E6E6E6"/>
<path d="M98.1752 107.16H86.2595C85.6782 107.16 85.207 107.63 85.207 108.21C85.207 108.79 85.6782 109.259 86.2595 109.259H98.1752C98.7565 109.259 99.2277 108.79 99.2277 108.21C99.2277 107.63 98.7565 107.16 98.1752 107.16Z" fill="#E6E6E6"/>
<path d="M58.8232 112.073H56.906C56.3247 112.073 55.8535 112.542 55.8535 113.122C55.8535 113.702 56.3247 114.171 56.906 114.171H58.8232C59.4045 114.171 59.8757 113.702 59.8757 113.122C59.8757 112.542 59.4045 112.073 58.8232 112.073Z" fill="#E6E6E6"/>
<path d="M80.7509 112.073H78.8337C78.2525 112.073 77.7812 112.542 77.7812 113.122C77.7812 113.702 78.2525 114.171 78.8337 114.171H80.7509C81.3322 114.171 81.8034 113.702 81.8034 113.122C81.8034 112.542 81.3322 112.073 80.7509 112.073Z" fill="#E6E6E6"/>
<path d="M86.9619 112.073H85.0447C84.4634 112.073 83.9922 112.542 83.9922 113.122C83.9922 113.702 84.4634 114.171 85.0447 114.171H86.9619C87.5431 114.171 88.0143 113.702 88.0143 113.122C88.0143 112.542 87.5431 112.073 86.9619 112.073Z" fill="#E6E6E6"/>
<path d="M74.7865 111.898H62.8708C62.2896 111.898 61.8184 112.368 61.8184 112.947C61.8184 113.527 62.2896 113.997 62.8708 113.997H74.7865C75.3678 113.997 75.839 113.527 75.839 112.947C75.839 112.368 75.3678 111.898 74.7865 111.898Z" fill="#E6E6E6"/>
<path d="M63.208 130.91H61.2908C60.7095 130.91 60.2383 131.38 60.2383 131.96C60.2383 132.54 60.7095 133.009 61.2908 133.009H63.208C63.7892 133.009 64.2604 132.54 64.2604 131.96C64.2604 131.38 63.7892 130.91 63.208 130.91Z" fill="#E6E6E6"/>
<path d="M69.4209 130.91H67.5037C66.9224 130.91 66.4512 131.38 66.4512 131.96C66.4512 132.54 66.9224 133.009 67.5037 133.009H69.4209C70.0021 133.009 70.4733 132.54 70.4733 131.96C70.4733 131.38 70.0021 130.91 69.4209 130.91Z" fill="#E6E6E6"/>
<path d="M86.4799 131.085H74.5642C73.9829 131.085 73.5117 131.555 73.5117 132.135C73.5117 132.715 73.9829 133.184 74.5642 133.184H86.4799C87.0612 133.184 87.5324 132.715 87.5324 132.135C87.5324 131.555 87.0612 131.085 86.4799 131.085Z" fill="#E6E6E6"/>
<path d="M41.2822 130.91H39.365C38.7837 130.91 38.3125 131.38 38.3125 131.96C38.3125 132.54 38.7837 133.009 39.365 133.009H41.2822C41.8634 133.009 42.3346 132.54 42.3346 131.96C42.3346 131.38 41.8634 130.91 41.2822 130.91Z" fill="#E6E6E6"/>
<path d="M57.2436 131.085H45.3279C44.7466 131.085 44.2754 131.555 44.2754 132.135C44.2754 132.715 44.7466 133.184 45.3279 133.184H57.2436C57.8248 133.184 58.296 132.715 58.296 132.135C58.296 131.555 57.8248 131.085 57.2436 131.085Z" fill="#E6E6E6"/>
<path d="M47.1298 126.173H45.2126C44.6314 126.173 44.1602 126.643 44.1602 127.223C44.1602 127.802 44.6314 128.272 45.2126 128.272H47.1298C47.7111 128.272 48.1823 127.802 48.1823 127.223C48.1823 126.643 47.7111 126.173 47.1298 126.173Z" fill="#E6E6E6"/>
<path d="M69.0556 126.173H67.1384C66.5572 126.173 66.0859 126.643 66.0859 127.223C66.0859 127.802 66.5572 128.272 67.1384 128.272H69.0556C69.6369 128.272 70.1081 127.802 70.1081 127.223C70.1081 126.643 69.6369 126.173 69.0556 126.173Z" fill="#E6E6E6"/>
<path d="M75.2685 126.173H73.3513C72.77 126.173 72.2988 126.643 72.2988 127.223C72.2988 127.802 72.77 128.272 73.3513 128.272H75.2685C75.8498 128.272 76.321 127.802 76.321 127.223C76.321 126.643 75.8498 126.173 75.2685 126.173Z" fill="#E6E6E6"/>
<path d="M63.0912 126.348H51.1755C50.5943 126.348 50.123 126.818 50.123 127.397C50.123 127.977 50.5943 128.447 51.1755 128.447H63.0912C63.6725 128.447 64.1437 127.977 64.1437 127.397C64.1437 126.818 63.6725 126.348 63.0912 126.348Z" fill="#E6E6E6"/>
<path d="M52.9755 121.436H51.0583C50.4771 121.436 50.0059 121.905 50.0059 122.485C50.0059 123.065 50.4771 123.535 51.0583 123.535H52.9755C53.5568 123.535 54.028 123.065 54.028 122.485C54.028 121.905 53.5568 121.436 52.9755 121.436Z" fill="#E6E6E6"/>
<path d="M74.9033 121.436H72.9861C72.4048 121.436 71.9336 121.905 71.9336 122.485C71.9336 123.065 72.4048 123.535 72.9861 123.535H74.9033C75.4845 123.535 75.9557 123.065 75.9557 122.485C75.9557 121.905 75.4845 121.436 74.9033 121.436Z" fill="#E6E6E6"/>
<path d="M81.1162 121.436H79.199C78.6177 121.436 78.1465 121.905 78.1465 122.485C78.1465 123.065 78.6177 123.535 79.199 123.535H81.1162C81.6974 123.535 82.1686 123.065 82.1686 122.485C82.1686 121.905 81.6974 121.436 81.1162 121.436Z" fill="#E6E6E6"/>
<path d="M68.9389 121.611H57.0232C56.4419 121.611 55.9707 122.08 55.9707 122.66C55.9707 123.24 56.4419 123.71 57.0232 123.71H68.9389C69.5202 123.71 69.9914 123.24 69.9914 122.66C69.9914 122.08 69.5202 121.611 68.9389 121.611Z" fill="#E6E6E6"/>
<path d="M58.8232 116.698H56.906C56.3247 116.698 55.8535 117.168 55.8535 117.748C55.8535 118.327 56.3247 118.797 56.906 118.797H58.8232C59.4045 118.797 59.8757 118.327 59.8757 117.748C59.8757 117.168 59.4045 116.698 58.8232 116.698Z" fill="#E6E6E6"/>
<path d="M80.7509 116.698H78.8337C78.2525 116.698 77.7812 117.168 77.7812 117.748C77.7812 118.327 78.2525 118.797 78.8337 118.797H80.7509C81.3322 118.797 81.8034 118.327 81.8034 117.748C81.8034 117.168 81.3322 116.698 80.7509 116.698Z" fill="#E6E6E6"/>
<path d="M86.9619 116.698H85.0447C84.4634 116.698 83.9922 117.168 83.9922 117.748C83.9922 118.327 84.4634 118.797 85.0447 118.797H86.9619C87.5431 118.797 88.0143 118.327 88.0143 117.748C88.0143 117.168 87.5431 116.698 86.9619 116.698Z" fill="#E6E6E6"/>
<path d="M74.7865 116.873H62.8708C62.2896 116.873 61.8184 117.343 61.8184 117.923C61.8184 118.502 62.2896 118.972 62.8708 118.972H74.7865C75.3678 118.972 75.839 118.502 75.839 117.923C75.839 117.343 75.3678 116.873 74.7865 116.873Z" fill="#E6E6E6"/>
<path d="M34.3887 199.348C34.6116 199.461 34.8382 199.574 35.0611 199.684C40.8352 202.562 45.4544 204.199 51.773 205.992C52.3066 200.052 52.8218 189.611 53.3225 183.139C53.4541 181.459 53.5856 180.049 53.7135 179.054C53.7458 178.525 53.8541 178.004 54.0351 177.505L54.0132 179.054L53.9584 183.139L53.6405 206.502C61.5003 208.575 69.5743 209.736 77.7015 209.96C78.1254 209.971 78.542 209.978 78.944 209.985C79.0866 209.989 79.2254 209.993 79.3643 209.993C79.8211 209.996 80.2743 210 80.7311 210C89.2957 210.006 97.8293 208.975 106.144 206.928C105.965 201.05 105.786 190.726 105.614 183.139C105.578 181.656 105.545 180.275 105.508 179.054C105.439 176.445 105.366 174.565 105.296 173.934C105.358 174.046 105.406 174.165 105.439 174.288C105.777 175.859 106.008 177.452 106.13 179.054C106.258 180.275 106.386 181.656 106.513 183.139C107.193 191.021 107.902 201.739 108.633 206.283C112.983 205.099 117.252 203.634 121.413 201.899C123.605 200.988 125.759 200.005 127.874 198.951C127.472 196.327 127.052 193.386 126.62 190.336C126.284 187.971 125.937 185.541 125.582 183.139C125.034 179.429 116.888 153.505 116.373 152.521C115.931 151.679 115.511 150.885 115.112 150.153C114.148 148.374 113.329 146.957 112.722 146.06C110.186 142.224 106.41 139.368 102.022 137.967L101.912 137.937L101.836 137.97L94.3623 135.682L93.2696 135.347L92.5351 135.121L89.9477 133.156L88.5407 132.089L87.2215 131.087L84.6414 129.13L68.6677 130.11L65.5577 137.577L58.5923 140.117L58.4717 140.062L58.3657 140.018L58.2561 140.047C53.8684 141.45 50.0931 144.306 47.5558 148.141C47.2123 148.655 46.7957 149.333 46.3242 150.153C45.9222 150.849 45.4837 151.643 45.0086 152.521C44.3325 153.771 43.5943 155.181 42.8123 156.708C42.6405 157.044 42.4651 157.386 42.2897 157.732C41.9644 158.374 41.6343 159.028 41.2993 159.697C40.5209 161.245 39.7169 162.863 38.9129 164.507C38.2149 165.932 37.5096 168.862 36.8153 172.589C36.2415 175.687 35.6714 179.338 35.1196 183.139C34.396 188.066 35.1671 193.966 34.513 198.499C34.4727 198.787 34.4289 199.068 34.3887 199.348Z" fill="#3F3D56"/>
<path opacity="0.2" d="M110.947 172.573L107.842 160.624L105.1 170.935L110.947 172.573Z" fill="black"/>
<path d="M28.3145 164.787C29.4254 180.049 28.2742 186.769 34.4065 199.352C39.9859 202.075 45.7976 204.297 51.7725 205.992C52.3938 206.167 53.0163 206.337 53.64 206.502C61.4998 208.575 69.5738 209.736 77.701 209.96C78.125 209.971 78.5416 209.978 78.9436 209.986C79.0861 209.989 79.225 209.993 79.3638 209.993C79.8206 209.996 80.2738 210 80.7306 210C89.2952 210.006 97.8288 208.975 106.144 206.928C106.977 206.724 107.807 206.509 108.633 206.283C112.983 205.099 117.252 203.634 121.412 201.899C123.605 200.988 125.759 200.005 127.873 198.951C128.352 198.711 128.831 198.47 129.302 198.222C131.725 193.973 133.103 188.806 133.132 182.596C131.455 171.897 32.0201 155.561 28.3145 164.787Z" fill="#2F2E41"/>
<path opacity="0.2" d="M28.3172 167.401C28.2605 166.456 28.197 165.48 28.123 164.464C31.8287 155.237 131.263 171.573 132.941 182.273C132.936 183.254 132.894 184.205 132.823 185.135C128.761 174.575 34.2969 159.048 28.3172 167.401Z" fill="black"/>
<path d="M5.7848 172.435C5.94581 172.902 6.25122 173.307 6.6572 173.59C7.06317 173.874 7.54882 174.022 8.04441 174.013L17.7258 173.765C18.225 173.755 18.7077 173.584 19.1016 173.278C19.4956 172.973 19.7797 172.548 19.9115 172.067L21.2815 157.459C21.7676 157.679 22.2967 157.787 22.8302 157.777C23.7659 157.752 24.6537 157.359 25.2985 156.682C25.9433 156.006 26.2924 155.102 26.2689 154.169C26.2454 153.236 25.8513 152.35 25.1733 151.707C24.4952 151.063 23.5887 150.714 22.653 150.737C22.4398 150.737 22.2271 150.759 22.0185 150.803C21.7917 150.558 21.5161 150.364 21.2093 150.232C20.9025 150.1 20.5714 150.033 20.2373 150.037L5.34514 150.42C5.2216 150.425 5.09869 150.44 4.97779 150.466C4.65121 150.526 4.34145 150.656 4.06938 150.846C3.7973 151.036 3.56922 151.282 3.40048 151.568C3.23175 151.853 3.12627 152.171 3.09116 152.501C3.05604 152.83 3.09209 153.163 3.1969 153.477L5.7848 172.435ZM21.5624 156.467L22.5373 152.986C22.6482 152.584 22.6508 152.16 22.5448 151.756C22.5921 151.756 22.6338 151.734 22.6811 151.734C23.3495 151.72 23.9962 151.971 24.4793 152.432C24.9623 152.893 25.2424 153.526 25.258 154.193C25.2737 154.859 25.0237 155.505 24.5628 155.988C24.1019 156.471 23.4677 156.752 22.7993 156.769C22.3672 156.782 21.9396 156.678 21.5624 156.467Z" fill="#2F2E41"/>
<path d="M4.97852 150.466C5.29579 152.275 8.86289 153.547 13.1521 153.326C17.0962 153.144 20.3212 151.763 20.9121 150.127C20.6934 150.062 20.466 150.032 20.238 150.037L5.34586 150.42C5.22232 150.425 5.09942 150.44 4.97852 150.466Z" fill="#3F3D56"/>
<path d="M13.9379 164.407C13.9575 164.403 13.9762 164.394 13.9931 164.383L16.0955 163.011C16.1209 162.995 16.1418 162.972 16.1563 162.945C16.1707 162.919 16.1783 162.889 16.1783 162.859C16.1784 162.828 16.1708 162.799 16.1564 162.772C16.1419 162.745 16.1211 162.723 16.0957 162.706L13.9103 161.279C13.8903 161.266 13.8678 161.257 13.8442 161.252C13.8206 161.248 13.7963 161.248 13.7728 161.253C13.7492 161.257 13.7268 161.267 13.7069 161.28C13.6871 161.294 13.67 161.311 13.6568 161.331C13.6437 161.351 13.6346 161.374 13.6301 161.397C13.6257 161.421 13.6259 161.445 13.6309 161.468C13.6358 161.492 13.6454 161.514 13.659 161.534C13.6726 161.554 13.6899 161.571 13.7101 161.584L15.6619 162.858L13.793 164.078C13.7569 164.102 13.7302 164.138 13.7179 164.179C13.7056 164.22 13.7084 164.265 13.7257 164.304C13.7431 164.344 13.774 164.376 13.8128 164.395C13.8517 164.413 13.896 164.418 13.9379 164.407Z" fill="#6C63FF"/>
<path d="M10.6166 164.56C10.6519 164.551 10.6837 164.532 10.7079 164.505C10.7322 164.478 10.7478 164.444 10.7528 164.408C10.7577 164.372 10.7518 164.336 10.7357 164.303C10.7197 164.271 10.6942 164.243 10.6627 164.225L8.72467 163.117L10.5978 161.73C10.6171 161.716 10.6333 161.698 10.6456 161.677C10.6579 161.657 10.6661 161.634 10.6695 161.61C10.673 161.587 10.6718 161.563 10.666 161.54C10.6601 161.516 10.6498 161.495 10.6355 161.475C10.6212 161.456 10.6032 161.44 10.5826 161.428C10.5621 161.415 10.5393 161.407 10.5155 161.404C10.4918 161.4 10.4676 161.402 10.4444 161.407C10.4211 161.413 10.3993 161.424 10.38 161.438L8.28284 162.991C8.25847 163.009 8.23898 163.033 8.22614 163.06C8.2133 163.088 8.20752 163.118 8.2093 163.148C8.21108 163.178 8.22039 163.208 8.23636 163.233C8.25234 163.259 8.27449 163.28 8.30081 163.295L10.4808 164.542C10.5219 164.565 10.5706 164.572 10.6166 164.56Z" fill="#6C63FF"/>
<path d="M13.7291 165.61C13.7468 165.606 13.7637 165.599 13.7792 165.589C13.7997 165.577 13.8176 165.56 13.8318 165.541C13.8459 165.522 13.8562 165.5 13.8619 165.476C13.8675 165.453 13.8686 165.429 13.8649 165.405C13.8612 165.382 13.8529 165.359 13.8404 165.339L10.86 160.452C10.8347 160.411 10.794 160.382 10.747 160.371C10.7 160.36 10.6505 160.367 10.6092 160.392C10.5679 160.417 10.5383 160.458 10.5267 160.505C10.5152 160.551 10.5228 160.601 10.5478 160.642L13.5282 165.528C13.5485 165.562 13.579 165.587 13.6151 165.602C13.6513 165.617 13.6913 165.62 13.7291 165.61Z" fill="#6C63FF"/>
<path d="M245.218 145.104H212.693V173.528H245.218V145.104Z" fill="#3F3D56"/>
<path d="M250.04 105.401C249.437 108.965 249.966 112.627 251.554 115.875C252.142 117.07 252.87 118.509 252.154 119.633C251.953 119.913 251.692 120.146 251.39 120.313C251.087 120.48 250.751 120.578 250.406 120.599C249.715 120.635 249.024 120.546 248.365 120.335" fill="#CCCCCC"/>
<path d="M221.464 94.4505C222.069 94.4505 222.56 94.0426 222.56 93.5394C222.56 93.0363 222.069 92.6284 221.464 92.6284C220.858 92.6284 220.367 93.0363 220.367 93.5394C220.367 94.0426 220.858 94.4505 221.464 94.4505Z" fill="#3F3D56"/>
<path d="M225.485 94.8147C226.091 94.8147 226.581 94.4069 226.581 93.9037C226.581 93.4006 226.091 92.9927 225.485 92.9927C224.88 92.9927 224.389 93.4006 224.389 93.9037C224.389 94.4069 224.88 94.8147 225.485 94.8147Z" fill="#3F3D56"/>
<path d="M229.505 96.637C230.11 96.637 230.601 96.2291 230.601 95.726C230.601 95.2228 230.11 94.8149 229.505 94.8149C228.899 94.8149 228.408 95.2228 228.408 95.726C228.408 96.2291 228.899 96.637 229.505 96.637Z" fill="#3F3D56"/>
<path d="M234.255 95.5437C234.86 95.5437 235.351 95.1359 235.351 94.6327C235.351 94.1296 234.86 93.7217 234.255 93.7217C233.649 93.7217 233.158 94.1296 233.158 94.6327C233.158 95.1359 233.649 95.5437 234.255 95.5437Z" fill="#3F3D56"/>
<path d="M134.461 112.811C139.786 111.337 145.717 112.917 149.831 116.535C152.051 118.501 153.681 121.043 154.538 123.877C155.588 127.251 155.762 130.81 155.872 134.318C155.994 138.196 156.099 142.074 156.213 145.952C156.321 149.65 156.333 153.365 156.581 157.057C156.788 160.154 157.286 163.37 158.948 166.057C160.49 168.548 162.925 170.23 165.677 171.157C168.466 172.096 171.473 172.315 174.399 172.296C177.804 172.285 181.204 172.017 184.569 171.493C190.959 170.472 197.271 167.868 201.175 162.496C202.972 160.057 203.982 157.13 204.07 154.104C204.152 150.579 203.023 147.164 201.785 143.907C200.581 140.738 199.279 137.616 198.517 134.303C197.809 131.202 197.471 128.029 197.512 124.849C197.577 118.488 199.106 112.226 201.981 106.547C203.436 103.63 205.282 100.924 207.468 98.5023C209.722 96.0564 212.513 94.0372 215.833 93.3753C217.453 93.0407 219.13 93.1079 220.718 93.5712C221.395 93.7734 221.685 92.7186 221.009 92.517C217.721 91.5352 214.149 92.2817 211.233 93.9858C208.367 95.6614 206.101 98.175 204.179 100.84C200.485 106.065 198.025 112.057 196.985 118.366C195.946 124.674 196.352 131.136 198.175 137.265C200.126 143.638 204.369 150.272 202.546 157.17C200.95 163.207 195.423 167.31 189.713 169.163C186.249 170.287 182.617 170.763 178.994 171.009C175.932 171.217 172.829 171.349 169.776 170.957C166.972 170.596 164.088 169.742 161.914 167.865C159.531 165.808 158.442 162.851 157.968 159.818C157.432 156.385 157.51 152.845 157.409 149.382L157.064 137.559C156.869 130.882 157.037 123.481 152.68 117.948C150.938 115.793 148.726 114.061 146.213 112.886C143.699 111.711 140.949 111.123 138.173 111.167C136.819 111.198 135.475 111.396 134.17 111.757C134.034 111.799 133.92 111.892 133.852 112.017C133.784 112.141 133.767 112.287 133.805 112.424C133.843 112.561 133.932 112.677 134.055 112.75C134.177 112.822 134.323 112.844 134.461 112.811Z" fill="#3F3D56"/>
<path d="M56.6312 105.895C57.4073 111.401 60.3438 116.375 64.7955 119.723C69.2472 123.072 74.8499 124.521 80.3726 123.753C85.8954 122.985 90.8864 120.062 94.249 115.626C97.6116 111.19 99.0707 105.605 98.3058 100.097L98.2641 99.7992C97.3742 94.3656 94.378 89.4986 89.9218 86.2481C85.4655 82.9975 79.9065 81.624 74.4439 82.4238C68.9812 83.2236 64.0527 86.1325 60.7216 90.5232C57.3905 94.9139 55.9237 100.434 56.6377 105.894L56.6312 105.895Z" fill="#FFB6B6"/>
<path d="M75.1797 123.242C74.0919 121.057 72.9741 118.711 73.2696 116.29C73.5651 113.868 75.9378 111.547 78.2777 112.258C79.6769 112.684 80.738 114.057 82.1993 114.122C84.21 114.212 85.3549 111.914 85.9743 110.005L88.4967 102.227C93.362 106.038 87.2002 102.043 93.2271 100.647C95.5915 100.1 97.9784 99.0403 99.3598 97.0501C100.741 95.0599 100.722 91.9799 98.8136 90.4847C97.8777 89.7516 96.6343 89.4761 95.7395 88.6935C95.1845 88.208 94.801 87.5572 94.6457 86.8375C94.4904 86.1177 94.5716 85.3672 94.8772 84.6971C95.1829 84.0269 95.6968 83.4727 96.3429 83.1164C96.989 82.7601 97.733 82.6207 98.4647 82.7188L92.0451 81.9405L93.9454 78.486C92.5715 79.5735 90.6546 79.7255 88.9272 79.4213C87.1997 79.1171 85.5714 78.4137 83.8809 77.9467C75.7653 75.7044 66.3555 79.6816 62.3277 87.0563C60.7469 86.5358 59.0447 86.5065 57.4468 86.9724C55.8489 87.4383 54.4307 88.3773 53.3801 89.665C51.6696 91.8448 51.2122 94.7476 51.1549 97.5148C51.0483 102.971 52.2594 108.373 54.686 113.264C55.4424 114.784 56.3363 116.276 57.6218 117.388C58.9074 118.499 73.4353 124.659 75.1119 124.369" fill="#2F2E41"/>
<path d="M226.945 108.845C226.948 109.791 226.826 110.733 226.583 111.647V111.651C226.58 111.669 226.572 111.687 226.569 111.705C225.831 114.413 224.069 116.315 222.012 116.315C219.965 116.315 218.211 114.428 217.462 111.742C217.411 111.556 217.367 111.37 217.327 111.177C217.275 110.962 217.235 110.74 217.202 110.51C217.173 110.328 217.151 110.142 217.133 109.953C217.107 109.69 217.089 109.428 217.085 109.154V109.151C217.078 109.049 217.078 108.947 217.078 108.845V108.754L217.082 108.75C217.082 108.288 217.113 107.827 217.173 107.369C217.199 107.176 217.228 106.99 217.265 106.804C217.308 106.578 217.356 106.356 217.414 106.137C217.462 105.944 217.517 105.758 217.575 105.572C217.656 105.324 217.743 105.084 217.842 104.854C217.904 104.705 217.97 104.559 218.036 104.417C218.935 102.573 220.382 101.374 222.012 101.374C224.266 101.374 226.167 103.666 226.755 106.793C226.763 106.84 226.773 106.888 226.777 106.935V106.939C226.89 107.568 226.946 108.206 226.945 108.845Z" fill="#E6E6E6"/>
<path d="M218.085 104.577C218.083 104.644 218.058 104.708 218.014 104.759C217.97 104.809 217.91 104.843 217.844 104.854C217.906 104.705 217.972 104.559 218.037 104.417C218.068 104.465 218.084 104.521 218.085 104.577Z" fill="#6C63FF"/>
<path d="M222.404 104.246H219.188C219.031 104.246 218.904 104.372 218.904 104.529C218.904 104.685 219.031 104.812 219.188 104.812H222.404C222.561 104.812 222.688 104.685 222.688 104.529C222.688 104.372 222.561 104.246 222.404 104.246Z" fill="#6C63FF"/>
<path d="M217.986 105.853C217.986 105.928 217.956 106 217.903 106.054C217.849 106.107 217.777 106.137 217.701 106.137H217.416C217.464 105.944 217.518 105.758 217.577 105.572H217.701C217.776 105.572 217.848 105.602 217.901 105.654C217.955 105.707 217.985 105.778 217.986 105.853Z" fill="#6C63FF"/>
<path d="M219.38 105.571H218.862C218.705 105.571 218.578 105.698 218.578 105.855C218.578 106.011 218.705 106.138 218.862 106.138H219.38C219.536 106.138 219.664 106.011 219.664 105.855C219.664 105.698 219.536 105.571 219.38 105.571Z" fill="#6C63FF"/>
<path d="M223.982 105.524H220.766C220.61 105.524 220.482 105.651 220.482 105.807C220.482 105.964 220.61 106.091 220.766 106.091H223.982C224.139 106.091 224.266 105.964 224.266 105.807C224.266 105.651 224.139 105.524 223.982 105.524Z" fill="#6C63FF"/>
<path d="M219.28 106.85H218.763C218.606 106.85 218.479 106.977 218.479 107.133C218.479 107.29 218.606 107.416 218.763 107.416H219.28C219.437 107.416 219.564 107.29 219.564 107.133C219.564 106.977 219.437 106.85 219.28 106.85Z" fill="#6C63FF"/>
<path d="M220.958 106.85H220.44C220.283 106.85 220.156 106.977 220.156 107.133C220.156 107.29 220.283 107.416 220.44 107.416H220.958C221.115 107.416 221.242 107.29 221.242 107.133C221.242 106.977 221.115 106.85 220.958 106.85Z" fill="#6C63FF"/>
<path d="M217.956 107.085C217.956 107.16 217.926 107.232 217.872 107.285C217.819 107.339 217.746 107.369 217.671 107.369H217.174C217.199 107.176 217.229 106.99 217.265 106.804H217.671C217.708 106.804 217.745 106.811 217.779 106.825C217.814 106.838 217.845 106.859 217.872 106.885C217.898 106.911 217.919 106.942 217.934 106.976C217.948 107.011 217.956 107.047 217.956 107.085Z" fill="#6C63FF"/>
<path d="M225.561 106.803H222.345C222.188 106.803 222.061 106.93 222.061 107.086C222.061 107.242 222.188 107.369 222.345 107.369H225.561C225.717 107.369 225.845 107.242 225.845 107.086C225.845 106.93 225.717 106.803 225.561 106.803Z" fill="#6C63FF"/>
<path d="M218.083 108.951C218.083 108.988 218.076 109.024 218.061 109.059C218.047 109.093 218.026 109.124 217.999 109.15C217.973 109.176 217.941 109.197 217.907 109.211C217.872 109.224 217.835 109.231 217.798 109.231H217.283C217.21 109.231 217.139 109.204 217.085 109.155V109.151C217.078 109.049 217.078 108.947 217.078 108.845V108.754L217.082 108.75C217.108 108.723 217.139 108.702 217.174 108.688C217.208 108.674 217.245 108.666 217.283 108.666H217.798C217.874 108.666 217.946 108.696 218 108.75C218.053 108.803 218.083 108.875 218.083 108.951Z" fill="#CCCCCC"/>
<path d="M222.404 108.618H219.188C219.031 108.618 218.904 108.745 218.904 108.902C218.904 109.058 219.031 109.185 219.188 109.185H222.404C222.561 109.185 222.688 109.058 222.688 108.902C222.688 108.745 222.561 108.618 222.404 108.618Z" fill="#CCCCCC"/>
<path d="M217.986 110.226C217.986 110.301 217.956 110.374 217.903 110.427C217.849 110.48 217.777 110.51 217.701 110.51H217.204C217.175 110.328 217.153 110.142 217.135 109.953C217.151 109.947 217.169 109.944 217.186 109.945H217.701C217.776 109.945 217.848 109.975 217.902 110.027C217.955 110.08 217.985 110.151 217.986 110.226Z" fill="#CCCCCC"/>
<path d="M219.38 109.944H218.862C218.705 109.944 218.578 110.071 218.578 110.228C218.578 110.384 218.705 110.511 218.862 110.511H219.38C219.536 110.511 219.664 110.384 219.664 110.228C219.664 110.071 219.536 109.944 219.38 109.944Z" fill="#CCCCCC"/>
<path d="M223.982 109.897H220.766C220.61 109.897 220.482 110.024 220.482 110.18C220.482 110.337 220.61 110.463 220.766 110.463H223.982C224.139 110.463 224.266 110.337 224.266 110.18C224.266 110.024 224.139 109.897 223.982 109.897Z" fill="#CCCCCC"/>
<path d="M219.28 111.223H218.763C218.606 111.223 218.479 111.35 218.479 111.506C218.479 111.663 218.606 111.789 218.763 111.789H219.28C219.437 111.789 219.564 111.663 219.564 111.506C219.564 111.35 219.437 111.223 219.28 111.223Z" fill="#CCCCCC"/>
<path d="M220.958 111.223H220.44C220.283 111.223 220.156 111.35 220.156 111.506C220.156 111.663 220.283 111.789 220.44 111.789H220.958C221.115 111.789 221.242 111.663 221.242 111.506C221.242 111.35 221.115 111.223 220.958 111.223Z" fill="#CCCCCC"/>
<path d="M217.957 111.458C217.957 111.533 217.927 111.605 217.873 111.658C217.82 111.712 217.747 111.742 217.672 111.742H217.463C217.412 111.556 217.368 111.37 217.328 111.177H217.672C217.709 111.177 217.746 111.184 217.78 111.198C217.815 111.211 217.846 111.232 217.873 111.258C217.899 111.284 217.92 111.315 217.935 111.35C217.949 111.384 217.957 111.42 217.957 111.458Z" fill="#CCCCCC"/>
<path d="M225.561 111.176H222.345C222.188 111.176 222.061 111.302 222.061 111.459C222.061 111.615 222.188 111.742 222.345 111.742H225.561C225.717 111.742 225.845 111.615 225.845 111.459C225.845 111.302 225.717 111.176 225.561 111.176Z" fill="#CCCCCC"/>
</g>
<defs>
<clipPath id="clip0_103_11265">
<rect width="270" height="210" fill="white"/>
</clipPath>
</defs>
</svg>
