<svg width="271" height="253" viewBox="0 0 271 253" fill="none" xmlns="http://www.w3.org/2000/svg">
<g clip-path="url(#clip0_100_10870)">
<path d="M250.513 193.552L262.67 195.449C266.785 190.475 269.622 184.574 270.934 178.258C262.044 185.522 248.526 181.662 237.747 185.627C234.394 186.89 231.369 188.889 228.896 191.477C226.423 194.065 224.565 197.176 223.46 200.578L217.519 206.958C222.897 209.084 228.673 210.02 234.448 209.702C240.224 209.385 245.862 207.822 250.973 205.12C253.826 203.576 256.473 201.679 258.851 199.475C254.597 196.802 250.513 193.552 250.513 193.552Z" fill="#F2F2F2"/>
<path d="M246.198 174.144L257.926 170.43C259.387 164.146 259.29 157.602 257.642 151.365C252.931 161.823 239.107 164.386 231.231 172.734C228.794 175.357 226.98 178.493 225.923 181.91C224.865 185.327 224.592 188.938 225.123 192.476L222.656 200.831C228.419 200.339 234.007 198.606 239.035 195.751C244.062 192.896 248.41 188.987 251.778 184.293C253.642 181.641 255.163 178.765 256.307 175.734C251.305 175.235 246.198 174.144 246.198 174.144Z" fill="#F2F2F2"/>
<path d="M271 210.824C271 210.886 270.988 210.948 270.964 211.006C270.94 211.064 270.905 211.117 270.861 211.161C270.816 211.205 270.764 211.24 270.706 211.264C270.648 211.288 270.585 211.3 270.523 211.3H0.47729C0.350705 211.3 0.229303 211.25 0.139794 211.16C0.050285 211.071 0 210.95 0 210.824C0 210.697 0.050285 210.576 0.139794 210.487C0.229303 210.397 0.350705 210.347 0.47729 210.347H270.523C270.585 210.347 270.648 210.359 270.706 210.383C270.764 210.407 270.816 210.442 270.861 210.486C270.905 210.531 270.94 210.583 270.964 210.641C270.988 210.699 271 210.761 271 210.824Z" fill="#CCCCCC"/>
<path d="M111.901 190.513C159.526 190.513 198.134 151.976 198.134 104.438C198.134 56.8995 159.526 18.3623 111.901 18.3623C64.2758 18.3623 25.668 56.8995 25.668 104.438C25.668 151.976 64.2758 190.513 111.901 190.513Z" fill="#E6E6E6"/>
<path d="M186.102 104.438C186.111 115.995 183.406 127.393 178.205 137.718C173.004 148.043 165.452 157.008 156.153 163.894C155.531 164.358 154.898 164.811 154.26 165.251C141.826 173.878 127.045 178.503 111.902 178.503C96.7583 178.503 81.9775 173.878 69.5432 165.251C68.9054 164.811 68.2717 164.358 67.65 163.894C58.358 157.002 50.8101 148.036 45.6098 137.712C40.4096 127.388 37.7012 115.993 37.7012 104.438C37.7012 92.8825 40.4096 81.4875 45.6098 71.1637C50.8101 60.8399 58.358 51.8736 67.65 44.9818C68.2717 44.5174 68.9054 44.065 69.5432 43.6246C81.9775 34.9971 96.7583 30.373 111.902 30.373C127.045 30.373 141.826 34.9971 154.26 43.6246C154.898 44.065 155.531 44.5174 156.153 44.9818C165.452 51.8676 173.004 60.8326 178.205 71.1577C183.406 81.4829 186.111 92.881 186.102 104.438Z" fill="white"/>
<path d="M111.901 172.097C149.337 172.097 179.684 141.805 179.684 104.438C179.684 67.0706 149.337 36.7786 111.901 36.7786C74.4657 36.7786 44.1182 67.0706 44.1182 104.438C44.1182 141.805 74.4657 172.097 111.901 172.097Z" fill="#FFB963"/>
<path opacity="0.2" d="M112.078 36.9678C111.051 36.9678 110.029 36.9946 109.013 37.0398C126.145 38.5424 142.064 46.4892 153.545 59.2701C165.026 72.051 171.21 88.7103 170.845 105.873C170.48 123.035 163.593 139.418 151.579 151.701C139.565 163.984 123.323 171.249 106.143 172.025C108.099 172.194 110.078 172.286 112.078 172.286C130.055 172.286 147.296 165.158 160.008 152.469C172.72 139.781 179.861 122.571 179.861 104.627C179.861 86.6826 172.72 69.4732 160.008 56.7847C147.296 44.0961 130.055 36.9678 112.078 36.9678Z" fill="black"/>
<path d="M112.101 31.9744C111.517 31.9754 110.956 32.2077 110.543 32.6204C110.129 33.0331 109.897 33.5926 109.896 34.1763V43.7847C109.896 44.3687 110.128 44.9287 110.542 45.3417C110.955 45.7546 111.516 45.9866 112.101 45.9866C112.687 45.9866 113.248 45.7546 113.661 45.3417C114.075 44.9287 114.307 44.3687 114.307 43.7847V34.1763C114.306 33.5926 114.074 33.0331 113.66 32.6204C113.247 32.2077 112.686 31.9754 112.101 31.9744Z" fill="white"/>
<path d="M156.153 44.9817C155.531 44.5173 154.897 44.0649 154.26 43.6245C153.877 43.5996 153.494 43.6748 153.15 43.8426C152.805 44.0104 152.51 44.265 152.294 44.5814L146.876 52.5203C146.546 53.0029 146.423 53.5963 146.532 54.1699C146.641 54.7435 146.974 55.2504 147.457 55.579C147.941 55.9076 148.535 56.0311 149.11 55.9222C149.685 55.8133 150.192 55.4811 150.522 54.9985L155.94 47.0595C156.146 46.7584 156.274 46.4105 156.311 46.0476C156.348 45.6847 156.294 45.3183 156.153 44.9817Z" fill="white"/>
<path d="M180.771 81.1814C180.662 80.9137 180.501 80.6701 180.298 80.4645C180.095 80.2588 179.853 80.0952 179.586 79.9829C179.319 79.8706 179.033 79.8119 178.744 79.8101C178.454 79.8083 178.167 79.8634 177.899 79.9724L168.979 83.5875C168.438 83.8077 168.006 84.2334 167.779 84.7711C167.552 85.3089 167.548 85.9146 167.768 86.4553C167.988 86.9959 168.414 87.4273 168.952 87.6545C169.491 87.8817 170.098 87.8862 170.64 87.6671L179.56 84.0519C180.101 83.8306 180.532 83.4044 180.759 82.8664C180.986 82.3284 180.99 81.7225 180.771 81.1814Z" fill="white"/>
<path d="M76.927 52.5203L71.5084 44.5814C71.2925 44.265 70.9976 44.0104 70.653 43.8426C70.3083 43.6748 69.9258 43.5996 69.5431 43.6245C68.9054 44.0649 68.2717 44.5173 67.65 44.9817C67.5091 45.3183 67.4547 45.6847 67.4918 46.0476C67.5289 46.4105 67.6564 46.7584 67.8626 47.0595L73.2812 54.9985C73.6104 55.4811 74.1182 55.8133 74.6929 55.9222C75.2675 56.0311 75.862 55.9076 76.3455 55.579C76.8289 55.2504 77.1618 54.7435 77.2709 54.1699C77.3799 53.5963 77.2563 53.0029 76.927 52.5203Z" fill="white"/>
<path d="M54.8229 83.5875L45.9028 79.9723C45.3608 79.7527 44.7537 79.7568 44.2148 79.984C43.676 80.2111 43.2496 80.6426 43.0294 81.1835C42.8092 81.7244 42.8133 82.3305 43.0408 82.8684C43.2682 83.4063 43.7004 83.832 44.2423 84.0519L53.1624 87.667C53.7042 87.8862 54.3111 87.8817 54.8496 87.6544C55.3881 87.4272 55.8142 86.9959 56.0343 86.4552C56.2543 85.9145 56.2504 85.3088 56.0232 84.7711C55.7961 84.2333 55.3643 83.8076 54.8229 83.5875Z" fill="white"/>
<path d="M112.101 162.889C111.517 162.89 110.956 163.122 110.543 163.535C110.129 163.948 109.897 164.507 109.896 165.091V174.699C109.896 175.283 110.128 175.843 110.542 176.256C110.955 176.669 111.516 176.901 112.101 176.901C112.687 176.901 113.248 176.669 113.661 176.256C114.075 175.843 114.307 175.283 114.307 174.699V165.091C114.306 164.507 114.074 163.948 113.66 163.535C113.247 163.122 112.686 162.89 112.101 162.889Z" fill="white"/>
<path d="M155.94 161.816L150.522 153.877C150.359 153.638 150.15 153.433 149.908 153.275C149.666 153.116 149.394 153.007 149.11 152.953C148.825 152.899 148.533 152.902 148.249 152.961C147.966 153.02 147.697 153.134 147.457 153.296C147.218 153.459 147.013 153.667 146.854 153.909C146.695 154.151 146.586 154.421 146.532 154.705C146.478 154.99 146.48 155.281 146.539 155.564C146.598 155.847 146.713 156.116 146.876 156.355L152.294 164.294C152.51 164.61 152.805 164.865 153.15 165.033C153.494 165.201 153.877 165.276 154.26 165.251C154.897 164.81 155.531 164.358 156.153 163.894C156.294 163.557 156.348 163.191 156.311 162.828C156.274 162.465 156.146 162.117 155.94 161.816Z" fill="white"/>
<path d="M179.56 124.824L170.64 121.208C170.098 120.989 169.491 120.993 168.952 121.22C168.413 121.447 167.987 121.879 167.767 122.42C167.547 122.961 167.551 123.567 167.778 124.104C168.006 124.642 168.438 125.068 168.98 125.288L177.9 128.903C178.442 129.122 179.048 129.118 179.587 128.891C180.125 128.663 180.552 128.232 180.772 127.691C180.992 127.151 180.988 126.545 180.761 126.007C180.533 125.469 180.102 125.044 179.56 124.824Z" fill="white"/>
<path d="M76.3454 153.296C75.8619 152.968 75.2675 152.845 74.6929 152.953C74.1183 153.062 73.6105 153.394 73.2812 153.877L67.8626 161.816C67.6564 162.117 67.5289 162.465 67.4918 162.828C67.4547 163.191 67.5091 163.557 67.65 163.894C68.2717 164.358 68.9054 164.81 69.5431 165.251C69.9258 165.276 70.3083 165.201 70.653 165.033C70.9976 164.865 71.2925 164.61 71.5084 164.294L76.927 156.355C77.0901 156.116 77.2044 155.847 77.2634 155.564C77.3224 155.281 77.325 154.99 77.2709 154.706C77.2169 154.421 77.1074 154.151 76.9486 153.909C76.7898 153.667 76.5849 153.459 76.3454 153.296Z" fill="white"/>
<path d="M56.0346 122.418C55.9257 122.15 55.765 121.906 55.5616 121.701C55.3583 121.495 55.1164 121.331 54.8497 121.219C54.583 121.107 54.2968 121.048 54.0073 121.046C53.7179 121.044 53.4309 121.1 53.1629 121.208L44.2428 124.824C43.7013 125.044 43.2696 125.469 43.0424 126.007C42.8153 126.545 42.8113 127.151 43.0314 127.691C43.2514 128.232 43.6775 128.663 44.216 128.891C44.7545 129.118 45.3614 129.122 45.9033 128.903L54.8233 125.288C55.3645 125.067 55.7959 124.64 56.0229 124.102C56.2499 123.564 56.2541 122.959 56.0346 122.418Z" fill="white"/>
<path d="M114.964 103.345C115.167 104.549 114.885 105.784 114.177 106.779C113.47 107.775 112.395 108.45 111.19 108.656L72.0451 115.302C71.448 115.404 70.8367 115.387 70.2461 115.252C69.6556 115.118 69.0973 114.869 68.6032 114.519C68.1092 114.169 67.689 113.726 67.3666 113.214C67.0443 112.702 66.8261 112.132 66.7245 111.536C66.6229 110.939 66.64 110.329 66.7746 109.74C66.9093 109.15 67.159 108.593 67.5094 108.1C67.8598 107.607 68.3041 107.187 68.8169 106.866C69.3297 106.544 69.901 106.326 70.4982 106.225L109.643 99.5783C110.849 99.375 112.086 99.6574 113.084 100.364C114.081 101.07 114.757 102.142 114.964 103.345Z" fill="#3F3D56"/>
<path d="M156.163 146.635C155.601 147.2 154.837 147.519 154.04 147.522C153.242 147.525 152.476 147.212 151.909 146.652L109.77 104.92C109.205 104.359 108.886 103.597 108.883 102.801C108.88 102.005 109.194 101.241 109.756 100.676C110.317 100.111 111.08 99.7914 111.878 99.7879C112.675 99.7844 113.441 100.097 114.008 100.657L156.147 142.389C156.712 142.95 157.032 143.713 157.035 144.509C157.038 145.305 156.725 146.07 156.163 146.635Z" fill="#3F3D56"/>
<path d="M111.902 109.642C114.781 109.642 117.116 107.312 117.116 104.438C117.116 101.563 114.781 99.2332 111.902 99.2332C109.022 99.2332 106.688 101.563 106.688 104.438C106.688 107.312 109.022 109.642 111.902 109.642Z" fill="#CCCCCC"/>
<path d="M75.9864 14.1903C67.9828 26.7503 55.7712 35.0857 40.7112 40.5615C40.4136 40.784 40.075 40.9458 39.7148 41.0377C39.3546 41.1295 38.9797 41.1497 38.6117 41.097C38.2437 41.0442 37.8897 40.9197 37.5699 40.7304C37.2501 40.5411 36.9707 40.2907 36.7479 39.9937C28.5674 29.0912 30.4146 13.5093 41.211 5.1785C43.8213 3.1679 46.8056 1.69487 49.9908 0.84494C53.176 -0.00499455 56.4986 -0.214909 59.7657 0.227389C63.0329 0.669687 66.1795 1.75538 69.0228 3.42145C71.8661 5.08751 74.3496 7.30076 76.329 9.9327L76.5553 10.2342C76.7782 10.5313 76.9403 10.8692 77.0323 11.2288C77.1243 11.5884 77.1445 11.9625 77.0917 12.3299C77.0388 12.6972 76.914 13.0506 76.7244 13.3698C76.5347 13.689 76.284 13.9678 75.9864 14.1903Z" fill="#E6E6E6"/>
<path d="M147.473 9.93269C149.452 7.30076 151.936 5.08751 154.779 3.42144C157.623 1.75538 160.769 0.669689 164.036 0.227391C167.303 -0.214907 170.626 -0.00499895 173.811 0.844935C176.996 1.69487 179.981 3.1679 182.591 5.1785C193.387 13.5093 195.235 29.0912 187.054 39.9937C186.831 40.2907 186.552 40.5411 186.232 40.7304C185.912 40.9197 185.558 41.0442 185.19 41.097C184.822 41.1497 184.447 41.1295 184.087 41.0377C183.727 40.9458 183.388 40.784 183.091 40.5615C169.11 35.2187 157.645 25.973 147.816 14.1903C147.215 13.741 146.817 13.0718 146.71 12.3299C146.604 11.588 146.797 10.8341 147.247 10.2342L147.473 9.93269Z" fill="#E6E6E6"/>
<path d="M143.965 179.01C143.455 179.296 143.08 179.772 142.921 180.334C142.762 180.896 142.833 181.497 143.117 182.007L155.849 204.716C156.134 205.225 156.611 205.601 157.174 205.759C157.737 205.918 158.34 205.847 158.851 205.562C159.361 205.277 159.737 204.801 159.896 204.239C160.055 203.677 159.984 203.075 159.699 202.565L146.967 179.856C146.681 179.348 146.204 178.973 145.641 178.814C145.079 178.656 144.476 178.726 143.965 179.01Z" fill="#E6E6E6"/>
<path d="M76.835 179.856L64.1039 202.565C63.8184 203.075 63.7473 203.677 63.9063 204.239C64.0654 204.801 64.4415 205.276 64.952 205.562C65.4624 205.847 66.0655 205.918 66.6284 205.759C67.1914 205.601 67.6682 205.225 67.954 204.716L80.6851 182.007C80.8267 181.755 80.917 181.477 80.9511 181.19C80.9851 180.902 80.9621 180.611 80.8834 180.333C80.8047 180.055 80.6718 179.795 80.4924 179.568C80.3129 179.34 80.0904 179.151 79.8376 179.01C79.5848 178.868 79.3065 178.778 79.0188 178.744C78.731 178.711 78.4394 178.734 78.1606 178.812C77.8818 178.891 77.6212 179.023 77.3938 179.203C77.1663 179.382 76.9765 179.604 76.835 179.856Z" fill="#E6E6E6"/>
<path d="M158.427 210.53C162.193 210.53 165.245 207.483 165.245 203.724C165.245 199.966 162.193 196.918 158.427 196.918C154.661 196.918 151.608 199.966 151.608 203.724C151.608 207.483 154.661 210.53 158.427 210.53Z" fill="#E6E6E6"/>
<path d="M163.24 36.3783C167.006 36.3783 170.059 33.3311 170.059 29.5723C170.059 25.8135 167.006 22.7664 163.24 22.7664C159.475 22.7664 156.422 25.8135 156.422 29.5723C156.422 33.3311 159.475 36.3783 163.24 36.3783Z" fill="#E6E6E6"/>
<path d="M111.5 20.3641C115.266 20.3641 118.318 17.317 118.318 13.5581C118.318 9.79932 115.266 6.7522 111.5 6.7522C107.734 6.7522 104.682 9.79932 104.682 13.5581C104.682 17.317 107.734 20.3641 111.5 20.3641Z" fill="#E6E6E6"/>
<path d="M62.1671 35.5775C65.9328 35.5775 68.9855 32.5304 68.9855 28.7715C68.9855 25.0127 65.9328 21.9656 62.1671 21.9656C58.4013 21.9656 55.3486 25.0127 55.3486 28.7715C55.3486 32.5304 58.4013 35.5775 62.1671 35.5775Z" fill="#E6E6E6"/>
<path d="M66.5792 210.53C70.3449 210.53 73.3976 207.483 73.3976 203.724C73.3976 199.966 70.3449 196.918 66.5792 196.918C62.8135 196.918 59.7607 199.966 59.7607 203.724C59.7607 207.483 62.8135 210.53 66.5792 210.53Z" fill="#E6E6E6"/>
<path d="M153.078 142.808C153.347 143.228 153.705 143.584 154.126 143.851C154.548 144.118 155.023 144.29 155.518 144.354C156.014 144.418 156.517 144.372 156.993 144.221C157.469 144.07 157.905 143.817 158.272 143.479L168.972 149.201L168.398 142.931L158.326 138.458C157.716 137.88 156.915 137.546 156.075 137.518C155.235 137.49 154.414 137.77 153.767 138.307C153.12 138.843 152.693 139.597 152.566 140.426C152.439 141.256 152.621 142.103 153.078 142.808Z" fill="#FFB7B7"/>
<path d="M160.874 144.996L165.067 139.219L185.265 148.75L210.4 144.042C211.642 143.81 212.921 143.853 214.145 144.169C215.368 144.485 216.507 145.066 217.481 145.871C218.455 146.676 219.239 147.684 219.778 148.826C220.317 149.967 220.597 151.213 220.6 152.475C220.601 154.754 219.697 156.94 218.086 158.555C216.474 160.169 214.287 161.08 212.004 161.086L183.2 161.14L160.874 144.996Z" fill="#3F3D56"/>
<path d="M154.417 244.774L150.175 242.749L156.002 225.05L162.263 228.039L154.417 244.774Z" fill="#FFB7B7"/>
<path d="M182.856 241.921C182.548 242.113 182.239 242.303 181.928 242.493C181.308 242.872 180.681 243.245 180.055 243.612C179.74 243.796 179.422 243.98 179.108 244.16V244.169L179.089 244.172L179.083 244.175L178.603 244.294L177.914 242.477L177.597 241.641L177.148 240.456L176.325 238.288L171.994 226.873L178.728 225.216L178.98 226.245H178.983L179.108 226.755L181.46 236.279L181.94 238.226L181.956 238.285L182.245 239.448L182.495 240.456L182.772 241.582L182.856 241.921Z" fill="#FFB7B7"/>
<path d="M223.024 201.835C222.597 202.52 222.161 203.201 221.722 203.876C220.905 205.132 220.067 206.37 219.207 207.589C219.207 207.592 219.204 207.592 219.201 207.595C218.699 208.059 218.145 208.463 217.549 208.799C217.524 208.818 217.496 208.83 217.471 208.846C217.033 209.088 216.566 209.275 216.082 209.403C215.907 209.446 215.73 209.49 215.555 209.533C214.926 209.682 214.303 209.81 213.683 209.922C212.579 210.118 211.489 210.258 210.405 210.345C210.317 210.354 210.23 210.36 210.143 210.367C205.684 210.693 201.344 210.168 196.813 209.306C194.576 208.883 192.292 208.376 189.927 207.85C189.154 207.676 188.378 207.505 187.593 207.334C187.534 207.322 187.471 207.306 187.409 207.294C186.287 207.048 185.147 206.805 183.979 206.566C182.508 206.264 180.99 205.972 179.414 205.695L179.526 207.913C179.619 209.619 179.974 211.3 180.579 212.898C181.252 214.864 181.785 216.419 180.66 219.657L180.118 221.224C180.399 222.003 180.495 222.836 180.4 223.658C180.304 224.479 180.019 225.268 179.566 225.961L179.457 226.126L183.979 237.544L184.271 238.284H181.956L179.108 238.287H174.282L167.318 224.341L166.984 223.675V223.641L167.704 196.84C167.713 196.604 167.732 196.364 167.763 196.128C167.89 195.054 168.23 194.015 168.764 193.073C169.297 192.131 170.013 191.305 170.87 190.642C171.691 190.001 172.631 189.53 173.636 189.256C174.642 188.981 175.691 188.909 176.725 189.043L179.108 189.351L183.979 189.979L187.409 190.424L187.478 190.433L197.595 191.74L198.321 188.785L198.455 188.735L202.715 187.177L217.447 181.787L217.484 181.774L218.453 181.42L218.568 181.607C218.603 181.663 218.637 181.718 218.668 181.774C219.626 183.488 220.406 185.295 220.996 187.168C221.988 190.226 222.804 193.338 223.442 196.489C223.47 196.626 223.495 196.75 223.516 196.862L223.526 196.896C223.535 196.949 223.541 196.983 223.544 196.993C223.884 198.405 223.647 200.128 223.024 201.835Z" fill="#2F2E41"/>
<path d="M223.645 191.959C223.598 191.76 223.539 191.557 223.477 191.361C222.982 189.877 222.406 188.422 221.751 187.001C221.015 185.384 220.134 183.651 219.084 181.776C218.576 180.868 218.029 179.923 217.445 178.942C217.152 178.451 216.847 177.95 216.532 177.44C216.519 177.417 216.506 177.394 216.491 177.372L216.401 177.222L201.824 179.169L196.397 179.894L196.073 182.594L195.995 183.262C195.992 183.262 195.992 183.262 195.995 183.266L195.777 185.088V185.091L195.487 187.499L195.462 187.495L187.407 186.454L179.106 185.381L174.648 184.805C173.614 184.671 172.564 184.743 171.559 185.017C170.554 185.292 169.614 185.763 168.793 186.404C167.936 187.067 167.22 187.893 166.687 188.835C166.154 189.777 165.813 190.816 165.686 191.89C165.658 192.108 165.639 192.332 165.63 192.553L161.424 202.502C158.907 208.453 157.303 214.748 156.669 221.176L153.584 231.02L154.023 231.06L160.56 231.667L162.287 231.828L166.088 226.289C166.521 225.658 166.933 225.008 167.316 224.342C167.947 223.255 168.508 222.129 168.995 220.971L177.218 201.439C177.854 201.547 178.483 201.651 179.106 201.75C181.989 202.216 184.756 202.597 187.407 202.891C196.029 203.852 203.495 203.927 210.141 203.112C212.007 202.885 213.811 202.586 215.553 202.216C216.192 202.082 216.822 201.938 217.445 201.784C217.591 201.75 217.734 201.715 217.878 201.678C219.165 201.347 220.349 200.698 221.321 199.792C222.293 198.885 223.021 197.75 223.44 196.49C223.939 195.03 224.011 193.458 223.645 191.959Z" fill="#2F2E41"/>
<path d="M155.772 241.884L151.182 239.688L150.462 239.343L149.312 242.16L141.286 243.924C140.889 244.011 140.53 244.222 140.262 244.527C139.994 244.832 139.831 245.214 139.796 245.618C139.761 246.022 139.857 246.427 140.069 246.773C140.281 247.119 140.598 247.388 140.974 247.541L148.817 250.735L151.307 248.499L150.696 251.5L153.65 252.704L156.887 242.419L155.772 241.884Z" fill="#2F2E41"/>
<path d="M183.979 237.544L184.272 238.284H183.979V237.544Z" fill="#2F2E41"/>
<path d="M182.38 238.442L177.57 240.105L176.816 240.366L177.985 243.175L173.525 250.066C173.304 250.406 173.198 250.808 173.222 251.213C173.247 251.618 173.4 252.004 173.66 252.316C173.92 252.627 174.273 252.848 174.668 252.945C175.062 253.042 175.478 253.01 175.853 252.855L183.677 249.616L183.87 246.279L185.552 248.84L188.499 247.621L183.549 238.039L182.38 238.442Z" fill="#2F2E41"/>
<path d="M222.446 196.465C222.16 196.464 221.879 196.395 221.626 196.262L196.248 183.025L195.955 181.827L195.402 178.035L195.41 177.999L197.824 166.892C197.779 166.797 197.687 166.641 197.582 166.464C196.505 164.642 193.226 159.095 199.484 151.459L210.472 138.672L219.902 138.267L220.01 138.402C222.531 141.561 224.232 145.293 224.961 149.267C225.689 153.24 225.423 157.331 224.185 161.177L223.203 178.879L224.256 182.454C224.872 184.555 224.77 186.801 223.967 188.838L224.208 194.626C224.218 194.864 224.179 195.1 224.095 195.323C224.011 195.545 223.883 195.747 223.718 195.919C223.554 196.091 223.356 196.227 223.138 196.321C222.919 196.415 222.684 196.464 222.446 196.465Z" fill="#3F3D56"/>
<path d="M200.432 211.064C200.862 210.81 201.231 210.466 201.513 210.054C201.796 209.643 201.984 209.175 202.065 208.683C202.147 208.191 202.119 207.688 201.984 207.208C201.849 206.728 201.611 206.283 201.285 205.905L207.387 195.431L201.089 195.786L196.26 205.678C195.661 206.266 195.298 207.053 195.24 207.89C195.183 208.727 195.436 209.556 195.95 210.22C196.464 210.884 197.204 211.337 198.031 211.492C198.857 211.648 199.711 211.495 200.432 211.064Z" fill="#FFB7B7"/>
<path d="M202.894 203.363L197.256 198.98L207.501 179.162L203.662 153.924C203.472 152.677 203.56 151.403 203.919 150.193C204.278 148.984 204.899 147.867 205.739 146.924C206.579 145.981 207.616 145.234 208.778 144.736C209.939 144.238 211.196 144.001 212.46 144.043C214.742 144.121 216.899 145.098 218.46 146.762C220.02 148.426 220.856 150.639 220.783 152.917L219.834 181.653L202.894 203.363Z" fill="#3F3D56"/>
<path d="M204.423 133.358V124.043C204.421 120.733 205.736 117.557 208.08 115.215C210.423 112.873 213.603 111.556 216.919 111.554C220.236 111.552 223.417 112.865 225.764 115.204C228.11 117.543 229.43 120.717 229.432 124.027V124.043C231.636 128.628 230.257 130.807 229.432 133.358C229.431 133.803 229.254 134.228 228.939 134.543C228.625 134.857 228.198 135.033 227.753 135.034H206.103C205.657 135.034 205.231 134.857 204.916 134.543C204.601 134.229 204.424 133.803 204.423 133.358Z" fill="#2F2E41"/>
<path d="M212.828 134.429C217.997 134.429 222.188 130.246 222.188 125.086C222.188 119.926 217.997 115.743 212.828 115.743C207.658 115.743 203.468 119.926 203.468 125.086C203.468 130.246 207.658 134.429 212.828 134.429Z" fill="#FFB7B7"/>
<path d="M222.624 127.535C222.539 127.522 222.454 127.504 222.369 127.491C220.909 127.232 219.449 126.978 217.994 126.715L217.86 123.422L216.096 126.372C212.073 127.704 208.309 126.951 204.768 125.289C203.6 124.736 202.467 124.112 201.375 123.422C201.672 121.6 202.374 119.868 203.429 118.352C204.483 116.836 205.864 115.574 207.47 114.66C207.604 114.584 207.733 114.517 207.867 114.45L207.869 114.45L207.87 114.449L207.871 114.447L207.872 114.446C208.099 114.339 208.331 114.236 208.564 114.143C210.381 113.433 212.363 113.254 214.279 113.625C216.195 113.995 217.966 114.901 219.387 116.237C222.244 118.96 223.53 123.457 222.624 127.535Z" fill="#2F2E41"/>
</g>
<defs>
<clipPath id="clip0_100_10870">
<rect width="271" height="253" fill="white"/>
</clipPath>
</defs>
</svg>
